<svg width="54" height="68" viewBox="0 0 54 68" fill="none" xmlns="http://www.w3.org/2000/svg">
<g clip-path="url(#clip0_330_639)">
<path d="M29.011 51.6271H24.9891L24.3567 38.1284H29.6433L29.011 51.6271Z" fill="#FDDA7F"/>
<path opacity="0.2" d="M29.4387 42.4933C28.029 43.6096 25.971 43.6096 24.5613 42.4933L24.3567 38.1284H29.6433L29.4387 42.4933Z" fill="black"/>
<path d="M15.1608 31.289C9.57986 31.289 4.27254 27.1433 2.81233 21.6461L0.209256 11.8457C-0.262149 10.0742 0.0666849 8.289 1.10608 6.94895C2.11787 5.64771 3.70455 4.89893 5.4591 4.89893H13.4063C14.4618 4.89893 15.3172 5.74816 15.3172 6.796C15.3172 7.84383 14.4618 8.69306 13.4063 8.69306H5.4614C4.88421 8.69306 4.4266 8.88939 4.13686 9.26378C3.82183 9.67014 3.73904 10.2431 3.90921 10.8778L6.51228 20.6782C7.52638 24.4997 11.3275 27.4925 15.1631 27.4925C16.2186 27.4925 17.0741 28.3418 17.0741 29.3896C17.0741 30.4375 16.2186 31.2867 15.1631 31.2867L15.1608 31.289Z" fill="#FDDA7F"/>
<path d="M38.8392 31.2891C37.7837 31.2891 36.9282 30.4399 36.9282 29.392C36.9282 28.3442 37.7837 27.495 38.8392 27.495C42.6771 27.495 46.4759 24.5021 47.49 20.6806L50.0931 10.8802C50.2609 10.2456 50.1805 9.67486 49.8654 9.26622C49.5757 8.89412 49.1181 8.69551 48.5409 8.69551H40.5937C39.5382 8.69551 38.6828 7.84628 38.6828 6.79844C38.6828 5.7506 39.5382 4.90137 40.5937 4.90137H48.5409C50.2954 4.90137 51.8821 5.64787 52.8939 6.95139C53.9356 8.29144 54.2621 10.0766 53.7907 11.8482L51.1877 21.6485C49.7275 27.1457 44.4201 31.2914 38.8392 31.2914V31.2891Z" fill="#FDDA7F"/>
<g opacity="0.2">
<path d="M15.3195 6.79795C15.3195 5.75011 14.4641 4.90088 13.4086 4.90088H6.75833L7.22054 8.6973H13.4109C14.4664 8.6973 15.3218 7.84807 15.3218 6.80023L15.3195 6.79795Z" fill="black"/>
<path d="M15.1608 27.4922C12.997 27.4922 10.8446 26.5402 9.19814 25.0244L9.46488 27.2365C9.58446 28.2296 9.79142 29.1998 10.0789 30.1426C11.6724 30.8754 13.404 31.2886 15.1585 31.2886C16.214 31.2886 17.0694 30.4394 17.0694 29.3916C17.0694 28.3437 16.214 27.4945 15.1585 27.4945L15.1608 27.4922Z" fill="black"/>
<path d="M36.9259 29.3916C36.9259 30.4394 37.7814 31.2886 38.8369 31.2886C40.5937 31.2886 42.3253 30.8754 43.9165 30.1426C44.204 29.2021 44.4109 28.2296 44.5305 27.2365L44.7973 25.0244C43.1508 26.5402 40.9984 27.4922 38.8346 27.4922C37.7791 27.4922 36.9236 28.3414 36.9236 29.3893L36.9259 29.3916Z" fill="black"/>
<path d="M40.5914 4.89877C39.5359 4.89877 38.6805 5.748 38.6805 6.79584C38.6805 7.84368 39.5359 8.69291 40.5914 8.69291H46.7817L47.2439 4.89648H40.5937L40.5914 4.89877Z" fill="black"/>
</g>
<path d="M26.9988 40.7081C18.6998 40.7081 11.7897 34.3868 11.1137 26.1753L9.11536 1.89917C9.06707 1.30563 9.53847 0.798828 10.1364 0.798828H43.8636C44.4615 0.798828 44.9329 1.30563 44.8846 1.89917L42.884 26.1753C42.208 34.3868 35.2979 40.7081 26.9988 40.7081Z" fill="#FFB340"/>
<path opacity="0.1" d="M21.8502 36.3181C22.1675 36.6309 21.818 37.1514 21.411 36.9664C20.1462 36.3912 18.9689 35.615 17.9226 34.6585C15.4437 32.3916 13.9283 29.3028 13.6523 25.9653L11.8403 3.98119C11.8104 3.62962 12.091 3.33057 12.4451 3.33057H15.193C15.5104 3.33057 15.7748 3.57255 15.7978 3.88759L17.5593 26.9423C17.8352 30.5356 19.3506 33.8617 21.8318 36.3021C21.8364 36.3067 21.8433 36.3135 21.8479 36.3181H21.8502Z" fill="white"/>
<path d="M35.1898 56.4392H18.8125C18.3733 56.4392 18.0422 56.042 18.1226 55.6128L18.6354 52.9076C18.8861 51.5767 20.0565 50.6133 21.4202 50.6133H32.5844C33.948 50.6133 35.1185 51.5767 35.3692 52.9076L35.882 55.6128C35.9624 56.042 35.6313 56.4392 35.1921 56.4392H35.1898Z" fill="#FDDA7F"/>
<path opacity="0.2" d="M35.8797 55.6128H18.1226C18.0422 56.042 18.3733 56.4392 18.8125 56.4392H35.1898C35.629 56.4392 35.9601 56.042 35.8797 55.6128Z" fill="black"/>
<path d="M40.2442 56.4395H13.7535C13.3674 56.4395 13.0545 56.7502 13.0545 57.1334V67.3059C13.0545 67.6892 13.3674 67.9999 13.7535 67.9999H40.2442C40.6302 67.9999 40.9432 67.6892 40.9432 67.3059V57.1334C40.9432 56.7502 40.6302 56.4395 40.2442 56.4395Z" fill="#FFB340"/>
<path opacity="0.7" d="M40.2442 56.4395H13.7535C13.3674 56.4395 13.0545 56.7502 13.0545 57.1334V67.3059C13.0545 67.6892 13.3674 67.9999 13.7535 67.9999H40.2442C40.6302 67.9999 40.9432 67.6892 40.9432 67.3059V57.1334C40.9432 56.7502 40.6302 56.4395 40.2442 56.4395Z" fill="white"/>
</g>
<defs>
<clipPath id="clip0_330_639">
<rect width="54" height="68" fill="white"/>
</clipPath>
</defs>
</svg>
