<svg width="60" height="50" viewBox="0 0 60 50" fill="none" xmlns="http://www.w3.org/2000/svg">
<path d="M14.494 47.8425C13.544 48.3851 12.6243 48.7834 11.9068 49.0554C12.6045 47.7015 12.7848 46.1358 12.7798 44.8357C12.7764 43.9529 12.6875 43.1634 12.5997 42.5949C12.5557 42.3102 12.5118 42.0796 12.4786 41.919C12.462 41.8386 12.4481 41.7757 12.4381 41.7321C12.4331 41.7104 12.4291 41.6934 12.4263 41.6815L12.4229 41.6676L12.4219 41.6635L12.4216 41.6622L12.4215 41.6617C12.4214 41.6616 12.4214 41.6614 11.9362 41.7823L12.4214 41.6614L12.3331 41.3074L11.9691 41.2834L9.69581 41.1335L9.67938 41.1324H9.66291C6.70585 41.1324 4.25228 38.5754 4.25228 35.3526V35.3154L4.24678 35.2786L0.500105 10.2356C0.518506 7.02904 2.96036 4.48668 5.91062 4.48668H5.93128L5.95186 4.48497L54.0376 0.505553H54.084C57.0323 0.505553 59.48 3.04728 59.4946 6.25647L55.7459 37.9479L55.7424 37.9772V38.0067C55.7424 41.2188 53.3023 43.7773 50.3477 43.7865L19.8287 41.7942L19.4016 41.7664L19.3082 42.1841C18.7195 44.8173 16.582 46.6499 14.494 47.8425Z" fill="white" stroke="#A556F4"/>
<path d="M59.8846 5.08583C59.8166 6.79044 59.686 8.49505 59.5083 10.1997C59.1373 13.7088 58.6408 17.218 58.0555 20.6938C57.5277 23.8254 56.9058 27.0625 55.5574 29.9276C53.2998 34.7471 48.4239 36.5295 43.6839 37.2846C38.7297 38.0731 33.7493 37.8065 28.7689 38.1286C26.0252 38.3063 23.2711 38.5228 20.5222 38.3895C18.1601 38.2785 15.4896 38.062 13.3939 36.7682C9.34901 34.2585 8.70098 28.0231 8.14702 23.5922C7.5199 18.545 6.31269 11.9487 9.60508 7.61776C11.1311 5.61332 13.0961 4.71937 15.3276 3.88094C16.0644 3.60332 16.9999 3.3368 17.9301 2.98145L5.91551 3.97534C2.64925 3.97534 0.00488281 6.79044 0.00488281 10.2607L3.75717 35.3412C3.75717 38.8115 6.40676 41.6211 9.66779 41.6211L11.9411 41.771C11.9411 41.771 13.2894 47.1791 10.6451 49.9887C10.6451 49.9887 18.5311 47.962 19.801 42.2818L50.3367 44.2752C53.6029 44.2752 56.2473 41.4601 56.2473 37.9953L59.9996 6.27406C59.9996 5.86318 59.9578 5.4634 59.8898 5.07473L59.8846 5.08583Z" fill="#A556F4"/>
<path d="M48.2478 16.7525C48.2478 17.5109 47.7601 18.1271 47.1599 18.1271H16.5523C15.9521 18.1271 15.4644 17.5109 15.4644 16.7525C15.4644 15.9941 15.9521 15.3779 16.5523 15.3779H47.1599C47.7601 15.3779 48.2478 15.9941 48.2478 16.7525Z" fill="#A556F4"/>
<path d="M48.2478 22.2505C48.2478 23.0089 47.7601 23.6251 47.1599 23.6251H16.5523C15.9521 23.6251 15.4644 23.0089 15.4644 22.2505C15.4644 21.4922 15.9521 20.876 16.5523 20.876H47.1599C47.7601 20.876 48.2478 21.4922 48.2478 22.2505Z" fill="#A556F4"/>
<path d="M48.2478 27.7496C48.2478 28.508 47.7601 29.1241 47.1599 29.1241H16.5523C15.9521 29.1241 15.4644 28.508 15.4644 27.7496C15.4644 26.9912 15.9521 26.375 16.5523 26.375H47.1599C47.7601 26.375 48.2478 26.9912 48.2478 27.7496Z" fill="#A556F4"/>
</svg>
