<svg width="90" height="80" viewBox="0 0 90 80" fill="none" xmlns="http://www.w3.org/2000/svg">
<g clip-path="url(#clip0_430_2840)">
<path d="M34.0983 11.2983C33.7625 11.2983 33.4321 11.3829 33.1376 11.5442L14.3902 21.8115C13.8314 22.1175 13.4518 22.6715 13.3682 23.3031L6.15856 77.7375C5.99983 78.9359 6.93237 80.0001 8.14124 80.0001H79.1548C80.1579 80.0001 81.0059 79.257 81.1375 78.2625L89.7006 13.5607C89.8592 12.3624 88.9267 11.2983 87.7179 11.2983H34.0983Z" fill="#FDF8E9"/>
<path d="M29.4997 22.2983C31.0041 22.2983 32.2759 21.184 32.4737 19.6927L32.8084 17.1681C33.1314 14.7319 30.5488 12.9621 28.3934 14.1425L23.7837 16.6671C21.0601 18.1587 22.1194 22.2983 25.2247 22.2983H29.4997Z" fill="#6779B7"/>
<path d="M57.8972 39.62C58.9307 38.7545 60.1391 37.8656 60.5392 36.737C60.8725 35.8072 59.7141 35.0996 58.4473 35.2692C56.9555 35.468 55.7304 36.2048 54.5636 36.8306C53.2801 37.5206 52.0634 38.2575 50.8466 39.006C49.1381 40.0528 47.4963 41.1697 45.8711 42.2925C45.0461 41.4563 44.221 40.6142 43.3876 39.7779C42.5542 38.9417 41.7374 38.0996 40.854 37.2867C39.9206 36.4329 38.9872 35.4504 37.6454 34.889C36.4786 34.3978 34.5201 35.0118 34.6951 36.0762C35.0368 38.1522 37.1537 40.1463 38.6455 41.9066C39.6122 43.0411 40.604 44.1522 41.6207 45.2633C40.4206 46.1113 39.2288 46.9651 38.0454 47.8247C35.9035 49.3686 32.9949 50.9943 31.9532 53.0762C31.3364 54.3042 33.3533 55.8832 35.1868 55.3452C38.1371 54.4797 40.2289 52.468 42.4125 50.889C43.3209 50.2341 44.2376 49.5849 45.1544 48.93C46.2712 50.0411 47.4046 51.1405 48.5797 52.2165C49.5215 53.0762 50.4716 53.9358 51.4383 54.7779C51.9217 55.199 52.3801 55.661 52.9468 56.0294C53.9802 56.7077 55.0136 56.8481 56.3888 56.6844C57.3722 56.5674 58.0723 55.9124 58.3639 55.2984C59.0557 53.8539 57.4972 52.8072 56.2721 51.8072C55.347 51.0528 54.4386 50.2925 53.5468 49.5265C52.1467 48.3218 50.8049 47.0879 49.4798 45.8423C51.3216 44.544 53.1885 43.2516 54.9553 41.9066C55.9471 41.158 56.9472 40.4095 57.8889 39.6259L57.8972 39.62Z" fill="#FBF4F3"/>
<path d="M27.5105 5.40359C27.7314 5.28264 27.9792 5.21924 28.231 5.21924H81.8587C82.7654 5.21924 83.4648 6.01741 83.3457 6.91623L74.7748 71.6121C74.676 72.3579 74.0401 72.9151 73.2878 72.9151H2.28236C1.3757 72.9151 0.6763 72.117 0.795344 71.2182L8.00497 16.7838C8.06771 16.3101 8.3524 15.8946 8.77152 15.6651L27.5105 5.40359Z" fill="white" stroke="#E9C237"/>
<path d="M24.5088 15.7134C25.5117 15.7134 26.3595 14.9706 26.4914 13.9764L27.2003 8.63246C27.4158 7.00836 25.6941 5.82834 24.2571 6.61524L14.4983 11.9592C12.6825 12.9535 13.3886 15.7134 15.4589 15.7134H24.5088Z" fill="#EEC635"/>
<path d="M52.0384 33.0409C53.0718 32.1754 54.2802 31.2865 54.6803 30.1579C55.0136 29.2281 53.8552 28.5205 52.5884 28.6901C51.0966 28.8889 49.8715 29.6257 48.7047 30.2515C47.4213 30.9415 46.2045 31.6784 44.9877 32.4269C43.2792 33.4737 41.6374 34.5906 40.0122 35.7134C39.1872 34.8772 38.3621 34.0351 37.5287 33.1988C36.6953 32.3626 35.8785 31.5205 34.9951 30.7076C34.0617 29.8538 33.1283 28.8713 31.7865 28.3099C30.6197 27.8187 28.6612 28.4327 28.8362 29.4971C29.1779 31.5731 31.2948 33.5672 32.7866 35.3275C33.7533 36.462 34.7451 37.5731 35.7618 38.6842C34.5617 39.5322 33.37 40.386 32.1865 41.2456C30.0446 42.7895 27.136 44.4152 26.0943 46.4971C25.4776 47.7251 27.4944 49.3041 29.3279 48.7661C32.2782 47.9006 34.3701 45.8889 36.5536 44.3099C37.462 43.655 38.3788 43.0058 39.2955 42.3509C40.4123 43.462 41.5457 44.5614 42.7208 45.6374C43.6626 46.4971 44.6127 47.3567 45.5794 48.1988C46.0628 48.6199 46.5212 49.0819 47.0879 49.4503C48.1213 50.1286 49.1548 50.269 50.5299 50.1053C51.5133 49.9883 52.2134 49.3333 52.5051 48.7193C53.1968 47.2748 51.6383 46.2281 50.4132 45.2281C49.4881 44.4737 48.5797 43.7134 47.688 42.9474C46.2878 41.7427 44.946 40.5088 43.6209 39.2632C45.4627 37.9649 47.3296 36.6725 49.0964 35.3275C50.0882 34.5789 51.0883 33.8304 52.03 33.0468L52.0384 33.0409Z" fill="#EF3C44"/>
<path d="M6.73389 73.4153L74.9427 75.22C75.9893 75.2477 76.8801 74.4635 76.9855 73.4219L83.266 11.2983L75.2703 71.6779C75.1386 72.6723 74.2907 73.4153 73.2876 73.4153H6.73389Z" fill="#F8DF87"/>
<path d="M12.5511 4.12284C12.2094 3.84799 11.876 3.57313 11.501 3.32167C11.1343 3.07606 10.7759 2.83044 10.3759 2.60822C10.1676 2.49126 9.9592 2.3743 9.75085 2.25734C9.60084 2.17547 9.47583 2.09945 9.30081 2.05267C9.26747 2.04097 9.2258 2.02927 9.19247 2.01758C9.08412 1.98249 8.97578 1.95325 8.8591 1.91816C8.45906 1.8012 8.0757 1.77781 7.709 1.97664C7.40063 2.14039 7.20062 2.46787 7.3423 2.73688C7.4423 2.93571 7.53398 3.19302 7.70066 3.36846C7.83401 3.51465 7.99236 3.64916 8.14237 3.78366C8.5174 4.14038 8.92577 4.46202 9.35915 4.78366C9.71751 5.05267 10.1176 5.28074 10.5176 5.51465C10.7759 5.6667 11.0343 5.83629 11.326 5.95325C11.6844 6.09945 12.0677 6.25734 12.4928 6.22226C12.7761 6.19886 13.0512 6.15793 13.2595 6.00003C13.4595 5.84214 13.5512 5.67255 13.5762 5.46202C13.6345 4.9474 13.0012 4.47957 12.5594 4.12284H12.5511Z" fill="white"/>
<path d="M10.9175 9.02328C10.7509 8.83614 10.5258 8.71918 10.2675 8.60807C9.94245 8.40924 9.4424 8.33322 9.04237 8.30983C8.72567 8.29228 8.40897 8.28059 8.09228 8.28643C7.70057 8.28643 7.2922 8.35076 6.90883 8.40339C6.46713 8.46187 6.05876 8.54374 5.75039 8.80105C5.32536 9.15193 5.36703 9.65485 5.95041 9.91216C6.1921 10.0174 6.46713 10.0935 6.75882 10.0935C6.91717 10.0935 7.07552 10.0818 7.22553 10.0818C7.52556 10.0759 7.83392 10.0876 8.12561 10.0584C8.75901 9.99988 9.65076 10.0291 10.1925 9.74257C10.1925 9.74257 10.1925 9.74257 10.2008 9.74257C10.3258 9.70749 10.4342 9.6724 10.5425 9.61392C10.6425 9.56129 10.7509 9.50281 10.8342 9.43848C10.9759 9.33322 11.0259 9.15778 10.9092 9.02912L10.9175 9.02328Z" fill="white"/>
<path d="M18.7517 1.32162C18.7517 1.17542 18.7517 1.02337 18.7517 0.877174C18.735 0.625712 18.6183 0.461969 18.4266 0.263138C18.1849 0.0175245 17.7682 -0.0701948 17.3849 0.070156C17.1098 0.169571 16.8682 0.28653 16.7098 0.485361C16.5681 0.660799 16.4681 0.871326 16.3598 1.05846C16.1848 1.3684 16.1514 1.73682 16.0931 2.07016C16.0264 2.41518 15.9847 2.74852 16.0181 3.0994C16.0514 3.49706 16.0598 3.9415 16.3931 4.28653C16.8015 4.71343 17.6682 4.73682 18.0766 4.28653C18.26 4.076 18.3433 3.83039 18.385 3.59062C18.3933 3.5263 18.4016 3.46197 18.4183 3.39764C18.4183 3.3684 18.435 3.34501 18.435 3.32747C18.5183 2.95904 18.5767 2.59647 18.6267 2.22805C18.6433 2.08185 18.6683 1.93565 18.6933 1.7953C18.6933 1.77191 18.7017 1.74267 18.71 1.73682C18.735 1.60232 18.7767 1.46782 18.7683 1.32747L18.7517 1.32162Z" fill="white"/>
</g>
<defs>
<clipPath id="clip0_430_2840">
<rect width="90" height="80" rx="3" fill="white"/>
</clipPath>
</defs>
</svg>
