<svg width="32" height="32" viewBox="0 0 32 32" fill="none" xmlns="http://www.w3.org/2000/svg">
<g clip-path="url(#clip0_329_300)">
<path d="M16.0889 9.77783C12.6222 9.77783 9.86667 12.5334 9.86667 16.0001C9.86667 19.4667 12.6222 22.2223 16.0889 22.2223C19.5556 22.2223 22.3111 19.4667 22.3111 16.0001C22.3111 12.5334 19.5556 9.77783 16.0889 9.77783ZM16.0889 20.4445C13.6 20.4445 11.6444 18.4889 11.6444 16.0001C11.6444 13.5112 13.6 11.5556 16.0889 11.5556C18.5778 11.5556 20.5333 13.5112 20.5333 16.0001C20.5333 18.4889 18.5778 20.4445 16.0889 20.4445Z" fill="#8D47F3"/>
<path d="M29.1556 13.0667L26.6667 12.2667L26.1333 10.9334L27.3778 8.62228C27.6444 8.08894 27.5556 7.37783 27.1111 6.93339L24.9778 4.80005C24.5333 4.35561 23.8222 4.26672 23.2889 4.53339L20.9778 5.77783L19.6444 5.2445L18.8444 2.75561C18.6667 2.22228 18.1333 1.77783 17.5111 1.77783H14.4889C13.8667 1.77783 13.3333 2.22228 13.2444 2.8445L12.4444 5.33339C11.9111 5.42228 11.4667 5.60005 11.0222 5.86672L8.71111 4.62228C8.17778 4.35561 7.46667 4.4445 7.02222 4.88894L4.88889 7.02228C4.44445 7.46672 4.35556 8.17783 4.62222 8.71117L5.77778 10.9334C5.6 11.3778 5.42222 11.9112 5.24445 12.3556L2.75556 13.1556C2.22222 13.3334 1.77778 13.8667 1.77778 14.4889V17.5112C1.77778 18.1334 2.22222 18.6667 2.84445 18.8445L5.33333 19.6445L5.86667 20.9778L4.62222 23.2889C4.35556 23.8223 4.44445 24.5334 4.88889 24.9778L7.02222 27.1112C7.46667 27.5556 8.17778 27.6445 8.71111 27.3778L11.0222 26.1334L12.3556 26.6667L13.1556 29.2445C13.3333 29.7778 13.8667 30.2223 14.4889 30.2223H17.5111C18.1333 30.2223 18.6667 29.7778 18.8444 29.2445L19.6444 26.6667L20.9778 26.1334L23.2889 27.3778C23.8222 27.6445 24.5333 27.5556 24.9778 27.1112L27.1111 24.9778C27.5556 24.5334 27.6444 23.8223 27.3778 23.2889L26.1333 20.9778L26.6667 19.6445L29.2444 18.8445C29.7778 18.6667 30.2222 18.1334 30.2222 17.5112V14.4889C30.2222 13.8667 29.7778 13.2445 29.1556 13.0667ZM28.4444 17.2445L25.2444 18.2223L25.1556 18.6667L24.3556 20.5334L24.0889 20.9778L25.6889 23.9112L23.9111 25.6889L20.9778 24.0889L20.5333 24.3556C19.9111 24.7112 19.2889 24.9778 18.6667 25.1556L18.2222 25.2445L17.2444 28.4445H14.7556L13.7778 25.2445L13.3333 25.1556L11.4667 24.3556L11.0222 24.0889L8.08889 25.6889L6.31111 23.9112L7.91111 20.9778L7.64445 20.5334C7.28889 19.9112 7.02222 19.2889 6.84445 18.6667L6.75556 18.2223L3.55556 17.2445V14.7556L6.57778 13.8667L6.75556 13.4223C6.93333 12.7112 7.2 12.0889 7.55556 11.4667L7.82222 11.0223L6.31111 8.08894L8.08889 6.31117L10.9333 7.91117L11.3778 7.6445C12 7.28894 12.6222 7.02228 13.3333 6.8445L13.7778 6.66672L14.7556 3.55561H17.2444L18.2222 6.66672L18.6667 6.8445C19.2889 7.02228 19.9111 7.28894 20.5333 7.6445L20.9778 7.91117L23.9111 6.31117L25.6889 8.08894L24.0889 11.0223L24.3556 11.4667C24.7111 12.0889 24.9778 12.7112 25.1556 13.3334L25.2444 13.7778L28.4444 14.7556V17.2445Z" fill="#8D47F3"/>
</g>
<defs>
<clipPath id="clip0_329_300">
<rect width="32" height="32" fill="white"/>
</clipPath>
</defs>
</svg>
