<svg width="70" height="85" viewBox="0 0 70 85" fill="none" xmlns="http://www.w3.org/2000/svg">
<g clip-path="url(#clip0_279_1284)">
<path d="M41.4824 8.98539C49.3636 2.88368 59.7341 0.704502 69.7966 0C70.5114 7.68982 69.4577 15.7617 65.2922 22.3411C59.7834 31.0459 46.2333 37.9357 35.5607 34.6639C24.3583 31.2309 36.0722 13.1706 41.4824 8.98539Z" fill="#22965E"/>
<path d="M66.4076 2.41205C63.7086 4.53749 61.6382 7.40924 59.2905 9.88694C56.7641 12.5497 54.1452 15.1409 51.3415 17.523C45.5246 22.4545 39.2394 25.6308 32.2148 28.5742C31.1364 29.0279 31.7896 30.7115 32.9172 30.4429C40.1391 28.7055 46.8248 24.1979 52.3644 19.5171C57.6699 15.0334 64.1276 9.1287 66.9621 2.7643C67.1039 2.4419 66.654 2.23294 66.4137 2.41802L66.4076 2.41205Z" fill="#177B52"/>
<path d="M32.8618 17.9889C32.4982 16.5202 32.0053 14.6933 31.235 13.0872C32.4797 11.4872 31.8143 8.62141 29.2447 8.86023C28.2834 8.94978 27.3345 9.08113 26.3856 9.23039C25.8371 9.22442 25.2394 9.30801 24.5986 9.511C21.0801 10.6036 22.522 15.547 26.1144 14.8425C25.6092 14.9798 26.0713 15.4157 26.3178 16.1082C26.6012 16.8963 26.8231 17.7023 27.0387 18.5083C27.4947 20.1979 27.8583 21.9234 28.0863 23.6548C28.5299 26.9982 28.0801 30.3177 28.3512 33.6432C28.5854 36.509 32.9111 37.4105 33.7491 34.3537C35.1356 29.2848 34.1065 23.0219 32.868 17.9949L32.8618 17.9889Z" fill="#177B52"/>
<path d="M67.3934 61.4947C65.3846 68.3069 62.3405 75.2862 56.3942 79.4177C50.4479 83.5492 40.9462 83.5134 36.7622 77.6982C36.0782 83.2029 28.955 86.1523 23.477 84.5761C21.2463 83.9313 19.2684 82.785 17.506 81.3342C14.9427 79.2207 12.8229 76.4683 10.999 73.7041C5.42241 65.2262 1.41096 55.6557 0.277159 45.6553C-0.308228 40.5148 -0.0863974 35.1356 2.15656 30.4369C5.35462 23.768 13.4761 19.7678 20.6979 22.9799C24.0624 24.4785 31.1979 29.8339 31.1979 29.8339C31.1979 29.8339 35.2402 25.7263 37.0703 24.0964C40.5518 20.9977 44.7419 19.3857 49.1601 19.7858C50.4726 19.9052 51.8036 20.2037 53.1469 20.6873C58.8097 22.7351 64.0228 27.3084 66.7648 32.5026C71.4171 41.3208 70.1909 51.972 67.3872 61.4947H67.3934Z" fill="#F47052"/>
<path d="M67.3935 61.4948C65.3847 68.307 62.3407 75.2864 56.3944 79.4179C50.4481 83.5494 40.9463 83.5135 36.7623 77.6984C36.0783 83.2031 28.9551 86.1524 23.4771 84.5762C21.2465 83.9314 19.2685 82.7851 17.5062 81.3343C23.5202 80.1164 29.0599 76.7073 32.6646 71.8833C40.5766 73.4057 49.5792 71.0594 54.4287 64.8084C58.5326 59.5127 59.1364 52.4557 59.0933 45.8286C59.0563 39.5777 58.5326 33.1535 55.7597 27.5116C54.478 24.9025 52.6541 22.5144 50.3988 20.6337C50.0229 20.3173 49.6039 20.0426 49.154 19.7979C50.4665 19.9173 51.7975 20.2158 53.1408 20.6994C58.8037 22.7472 64.0167 27.3205 66.7588 32.5147C71.4111 41.3329 70.1849 51.9841 67.3812 61.5068L67.3935 61.4948Z" fill="#EA5E47"/>
</g>
<defs>
<clipPath id="clip0_279_1284">
<rect width="70" height="85" fill="white"/>
</clipPath>
</defs>
</svg>
