<svg width="60" height="50" viewBox="0 0 60 50" fill="none" xmlns="http://www.w3.org/2000/svg">
<path d="M59.6289 24.7901C59.6289 21.5867 57.8664 18.886 55.5261 18.5049L25.262 13.5635L0 27.4809L31.8235 44.3521L56.4956 30.7763C58.2992 29.9221 59.6289 27.5959 59.6289 24.7934V24.7901Z" fill="#DC70F7"/>
<path d="M58.1842 20.0033L30.9494 34.039C31.7932 34.8867 31.8294 36.7857 32.0132 38.2872C32.1824 39.286 32.1848 40.2322 32.0543 41.1127C31.9092 42.1148 33.7515 43.9416 33.3259 44.7761L31.5296 49.4777L56.5934 35.9578C59.659 33.6053 59.4922 33.0304 59.8959 29.3276C60.0893 27.5468 59.9539 24.9546 59.9539 24.3435C59.9539 22.4871 59.1343 21.1664 58.1818 20L58.1842 20.0033Z" fill="#C615F2"/>
<path d="M33.1896 44.082C33.2984 44.3843 33.3323 44.6537 33.2283 44.8607L31.432 49.5622L56.4958 36.0423C59.1794 33.9823 59.3849 33.2858 59.6677 30.6606L33.1921 44.082H33.1896Z" fill="#980BBB"/>
<g style="mix-blend-mode:multiply" opacity="0.72">
<path d="M7.82607 29.2054L39.3087 29.7639C39.3087 29.7639 43.8635 28.7651 44.746 32.3759C45.6308 35.9867 45.0869 40.547 45.0869 40.547L46.9098 37.7477L48.2298 39.4792V27.4805L7.82607 29.2054Z" fill="#E5D2A3"/>
</g>
<path d="M29.7662 33.4827L0.551346 28.4756V43.4904L30.7308 48.5074C33.0953 48.9575 33.2283 42.0316 33.2283 38.7855C33.2283 36.0816 31.7414 33.8047 29.7662 33.4794V33.4827Z" fill="#F4F4F7"/>
<path d="M32.764 35.1191C32.764 35.1191 29.5944 40.2774 31.9347 47.9327C33.482 46.9733 34.5313 37.2974 32.764 35.1191Z" fill="#E2E6EF"/>
<path d="M0 43.383L0.551224 42.8311C0.551224 42.8311 24.7688 47.3059 27.3968 47.7429C30.0248 48.1799 31.4802 48.3737 32.4811 47.5195C31.5382 48.9947 33.2813 50.3023 22.4841 48.1142C11.6893 45.926 0 43.383 0 43.383Z" fill="#C615F2"/>
<path d="M30.2641 32.4219L0 27.4805V28.384L29.7661 33.4831C31.7413 33.8051 33.2282 36.082 33.2282 38.7892C33.2282 42.0353 33.5981 49.5789 29.4832 49.0072L0 43.3824V44.3483L29.0601 49.8877C33.9825 50.9851 34.5047 43.8128 34.3669 38.7071C34.3669 35.5037 32.6044 32.803 30.2641 32.4219Z" fill="#980BBB"/>
<path d="M3.64823 16.2406L11.641 0.351809L44.2019 0.000258844C46.8613 -0.0293108 49.1701 2.47754 49.7359 6.00618L52.1366 20.952L3.64823 16.2406Z" fill="#7526E9"/>
<path d="M44.2043 0.00346694L11.6434 0.355017L3.64823 16.2405L49.1774 20.6694L47.1079 1.07126C46.252 0.381301 45.256 -0.00967458 44.2019 0.000181971L44.2043 0.00346694Z" fill="#8B45F2"/>
<path d="M47.1079 1.07126C46.252 0.381301 45.256 -0.00967458 44.2019 0.000181971L42.2847 0.0198943L42.5893 20.0254L49.1798 20.6661L47.1103 1.06798L47.1079 1.07126Z" fill="#7F31F1"/>
<path d="M47.5503 16.2402H3.64823V17.4329H47.5721C49.7214 17.4329 51.4645 19.8017 51.4645 22.7226C51.4645 25.6434 49.7214 28.0122 47.5721 28.0122H3.64823V29.2049H47.5503C50.1855 29.2049 52.3203 26.3038 52.3203 22.7226C52.3203 19.1413 50.1855 16.2402 47.5503 16.2402Z" fill="#7526E9"/>
<path d="M47.5503 16.2402H21.1786V17.4329H47.5745C49.7238 17.4329 51.4669 19.8017 51.4669 22.7226C51.4669 25.6434 49.7238 28.0122 47.5745 28.0122H21.1786V29.2049H47.5503C50.1855 29.2049 52.3203 26.3038 52.3203 22.7226C52.3203 19.1413 50.1855 16.2402 47.5503 16.2402Z" fill="#7526E9"/>
<path d="M47.5719 17.4331H3.98655C3.98655 17.4331 5.10109 19.4438 5.10109 22.7228C5.10109 26.0017 3.98655 28.0125 3.98655 28.0125H47.5719C49.7212 28.0125 51.4643 25.6436 51.4643 22.7228C51.4643 19.802 49.7212 17.4331 47.5719 17.4331Z" fill="#F2F0F3"/>
<path d="M44.7456 23.8135C44.7456 23.8135 45.9979 24.3392 45.9012 28.0124H47.874C47.874 28.0124 47.2189 23.82 44.7456 23.8135Z" fill="#C4CCDF"/>
<path d="M44.7456 23.8133C44.7456 23.8133 46.421 23.8758 46.7377 26.0771C47.052 28.2784 46.9094 37.2117 46.9094 37.2117L48.2028 36.042L49.9798 36.985C49.9798 36.985 50.5552 25.397 48.6985 23.8823C47.5331 23.8823 44.7456 23.8101 44.7456 23.8101V23.8133Z" fill="#6718DC"/>
</svg>
