<svg width="90" height="80" viewBox="0 0 90 80" fill="none" xmlns="http://www.w3.org/2000/svg">
<path d="M75.1785 79.6534C73.1648 79.2343 71.4348 78.0113 69.9907 75.9845C68.5444 73.9528 67.3724 71.4279 66.4678 68.405C65.5633 65.3821 64.9308 62.1273 64.5704 58.6507C64.2099 55.1741 64.1053 51.7764 64.2564 48.4576L65.3447 24.856C65.4052 23.564 65.5144 22.3361 65.6749 21.1772C65.8353 20.0184 66.1841 19.111 66.7236 18.4601C67.2608 17.8042 68.1397 17.6069 69.3605 17.8584C70.579 18.1099 71.4231 18.6672 71.8928 19.5302C72.3602 20.3932 72.6207 21.4238 72.6742 22.6271C72.7253 23.8303 72.7207 25.1026 72.6579 26.4538L71.5743 49.9715C71.4882 51.8257 71.544 53.7933 71.744 55.8793C71.9417 57.9653 72.3719 59.7948 73.0346 61.3827C73.6973 62.9657 74.6902 63.8977 76.0157 64.1689C77.0225 64.376 77.9224 64.0111 78.7154 63.0692C79.5083 62.1273 80.1548 60.7022 80.6594 58.7888C81.1616 56.8804 81.4732 54.6021 81.5965 51.9638L82.701 28.022C82.7568 26.7842 82.8708 25.6303 83.0405 24.5602C83.2103 23.49 83.5637 22.6419 84.1009 22.0156C84.638 21.3893 85.503 21.2019 86.6959 21.4485C87.9144 21.7 88.7515 22.272 89.205 23.1596C89.6584 24.0473 89.9119 25.0927 89.963 26.296C90.0142 27.4993 90.0119 28.7469 89.9514 30.0389L88.8585 53.7292C88.7027 57.1023 88.2841 60.4063 87.5982 63.6363C86.9145 66.8713 85.9844 69.771 84.8101 72.3353C83.6358 74.8996 82.2406 76.8672 80.6245 78.2332C79.0107 79.5992 77.1946 80.0775 75.1809 79.6584L75.1785 79.6534Z" fill="#FF90E6"/>
<path d="M87.5731 47.6589C87.3591 47.6145 87.2033 47.2101 87.2243 46.7564L88.0125 29.6298C88.1474 26.6956 87.8242 25.8178 86.5011 25.5417C86.2871 25.4973 86.1313 25.0929 86.1523 24.6392C86.1732 24.1855 86.3639 23.8551 86.5778 23.8995C88.3241 24.2595 88.9636 25.9657 88.7869 29.7876L87.9986 46.9142C87.9777 47.3679 87.787 47.6983 87.5731 47.6539V47.6589Z" fill="white"/>
<path d="M88.8564 53.7243C88.7075 57.3242 88.2471 60.86 87.5356 64.1541C86.0915 70.7769 83.5174 76.2064 80.2596 78.7017C78.6388 79.9296 76.8855 80.2057 75.1834 79.8655C73.4812 79.5055 71.7861 78.5143 70.3141 76.6157C68.8515 74.7171 67.5795 72.1676 66.6238 69.1496C64.6984 63.1284 63.9102 55.6278 64.259 48.4526C64.2613 49.36 64.2822 50.2624 64.3241 51.16C64.6566 60.5246 66.8308 70.195 70.7815 74.9637C72.1302 76.6206 73.6812 77.5181 75.2787 77.8091C76.8739 78.1641 78.4807 77.9324 79.9596 76.8771C84.2755 73.9133 87.3658 65.4018 88.5448 56.3478C88.6657 55.4848 88.7703 54.607 88.8564 53.7193V53.7243Z" fill="#F358D0"/>
<path d="M40.8843 64.1823C39.6867 64.567 38.8077 64.4585 38.2497 63.8568C37.6893 63.2552 37.3125 62.3676 37.1219 61.189C36.9289 60.0104 36.7893 58.8022 36.701 57.5595L33.5827 13.8133C33.3734 10.8791 33.5013 8.77344 33.9687 7.50114C34.4361 6.22885 35.3732 5.36093 36.7847 4.91217L51.3878 0.232303C51.9994 0.0350482 52.5854 -0.0339912 53.1481 0.0153225C53.7085 0.0646362 54.2084 0.572567 54.6433 1.52925C55.0781 2.48594 55.3897 4.26123 55.5734 6.85513C55.7548 9.39479 55.7036 11.2588 55.4199 12.4424C55.1362 13.6308 54.7247 14.4248 54.1829 14.8292C53.6411 15.2335 53.062 15.5343 52.4505 15.7316L41.4377 19.2625L41.9748 26.7927L49.3555 24.4256C49.967 24.2284 50.5205 24.1544 51.0134 24.1988C51.5064 24.2431 51.9319 24.6722 52.2877 25.476C52.6435 26.2847 52.9039 27.8184 53.0644 30.072C53.2178 32.2172 53.1806 33.8001 52.9551 34.8259C52.7295 35.8516 52.3691 36.5272 51.8761 36.8576C51.3832 37.188 50.8297 37.4543 50.2182 37.6466L42.9166 39.989L43.4538 47.5192L54.5061 43.9785C55.1176 43.7812 55.7036 43.7122 56.2664 43.7615C56.8268 43.8108 57.3267 44.3188 57.7616 45.2705C58.1964 46.2272 58.508 48.0025 58.6917 50.5964C58.8731 53.1361 58.8219 55.0001 58.5382 56.1836C58.2545 57.3721 57.8429 58.166 57.3011 58.5704C56.7593 58.9748 56.1803 59.2756 55.5688 59.4729L40.8843 64.1774V64.1823Z" fill="#D5ECF9"/>
<path d="M54.1855 8.13237C53.9739 8.20141 53.7762 7.89074 53.7437 7.44198C53.5646 4.92205 53.3088 4.24645 53.3065 4.24152C53.0531 3.68921 52.7787 3.74346 50.7486 4.40426L49.7813 4.71987C49.5697 4.78891 49.372 4.47823 49.3395 4.02947C49.3069 3.58072 49.4534 3.16155 49.665 3.09251L50.63 2.77691C52.8042 2.06679 53.3181 1.89419 53.8716 3.11224C53.9948 3.38346 54.3087 4.33029 54.5134 7.20035C54.5459 7.6491 54.3994 8.06827 54.1878 8.13731L54.1855 8.13237Z" fill="white"/>
<path d="M55.9318 58.0381C54.2878 58.5164 52.6461 59.0293 50.9998 59.4632C48.3814 60.1536 45.7677 60.8983 43.1634 61.781C41.4961 62.3481 38.4987 64.6954 37.6616 60.3854C37.0873 57.4315 36.9222 53.9105 36.6082 50.7791C36.285 47.7808 35.9665 44.7776 35.5781 41.7991L36.185 50.9122C36.5338 55.9422 36.3594 64.3897 39.5405 64.5475C41.2333 64.6313 43.0332 63.6845 44.712 63.142C46.2677 62.639 47.8233 62.1213 49.3767 61.6133C50.6184 61.204 51.8625 60.7996 53.1042 60.3903C54.9528 59.7838 58.2269 59.9416 58.7268 55.1877C58.8757 53.6689 58.7989 52.1106 58.6896 50.6016C58.7036 51.3709 58.7036 52.1402 58.6734 52.8996C58.5524 56.5735 57.5363 57.5745 55.9295 58.0381H55.9318Z" fill="#8AD0F5"/>
<path d="M43.1287 45.6998C43.2264 46.3113 43.3403 46.9178 43.4542 47.5195L43.2217 43.742C43.1473 42.519 43.0589 41.3059 42.9775 40.0879L46.1028 39.1361C47.584 38.7022 49.0769 38.2633 50.5465 37.6764C51.7255 37.208 53.0486 36.4978 53.1602 33.4749C53.2137 32.3308 53.1532 31.1917 53.0649 30.0723C53.016 31.2311 52.9509 32.3801 52.8137 33.3812C52.4626 35.9406 49.9047 36.6014 48.5467 36.986C46.6353 37.5236 44.7239 38.2189 42.7357 38.855C42.4613 39.003 42.2916 39.5849 42.3567 40.1717C42.4241 40.7931 42.5102 41.4046 42.5892 42.021C42.7543 43.2538 42.9194 44.4965 43.1287 45.6998Z" fill="#8AD0F5"/>
<path d="M41.6871 24.9534C41.7731 25.5698 41.8801 26.1764 41.9754 26.7879C41.815 24.3074 41.6685 21.822 41.4941 19.3464L45.7309 18.0396C47.5958 17.4676 49.4584 16.861 51.3186 16.2397C52.9045 15.712 55.2205 15.5098 55.6252 11.4316C55.767 9.90286 55.6856 8.35441 55.574 6.85034C55.5414 8.39386 55.488 9.96204 55.2671 11.259C54.7973 13.8775 53.544 13.9219 52.3069 14.3164C50.8931 14.7701 49.4816 15.2287 48.0655 15.6972C46.5377 16.2002 45.0263 16.6145 43.4823 17.2062C42.7707 17.4774 41.2685 18.301 41.2685 18.301C41.0406 18.4292 40.9035 18.9223 40.9616 19.4105L41.1825 21.2647C41.3453 22.4976 41.5127 23.7304 41.6871 24.9534Z" fill="#8AD0F5"/>
<path d="M26.9107 47.7395C27.4502 49.2731 27.785 50.6243 27.9129 51.793C28.0385 52.9618 27.9571 54.0664 27.6618 55.1069C27.3665 56.1474 26.8479 57.2767 26.1038 58.4849C24.9435 60.2602 23.9971 61.0443 23.2692 60.8323C22.5391 60.6202 21.7531 59.2542 20.9113 56.7343L11.6635 30.0112L7.49648 61.9566C7.0849 64.8415 6.55704 66.6513 5.90828 67.391C5.25951 68.1307 4.25961 68.0962 2.90627 67.2825C2.01334 66.7548 1.33667 66.1138 0.876249 65.3642C0.415832 64.6146 0.148418 63.6431 0.0740077 62.4547C-0.000403021 61.2662 0.090285 59.7523 0.343747 57.9178L6.5803 10.3054C6.7826 8.83588 7.16163 7.57345 7.71274 6.52306C8.26617 5.47268 8.87308 4.81681 9.5358 4.56531C10.0125 4.38285 10.4706 4.39764 10.9124 4.60475C11.3542 4.81187 11.7751 5.18666 12.1774 5.72911C12.5773 6.27156 12.9261 6.98168 13.2191 7.85453L26.9107 47.7444V47.7395ZM7.20349 53.7261L9.10329 39.4301L15.6561 36.92L19.7929 48.9033L7.20349 53.7261Z" fill="#FBD792"/>
<path d="M3.45358 64.516C3.39777 64.5358 3.33964 64.5308 3.27918 64.5012C3.22569 64.4667 3.15593 64.4322 3.0792 64.3928C2.49786 64.0969 1.52355 63.5988 1.42821 62.075C1.39565 61.5424 1.40728 60.5216 1.65377 58.7315L2.75133 50.3482C2.80946 49.9093 3.02339 49.6529 3.23034 49.7762C3.4373 49.8994 3.55822 50.3531 3.50008 50.792L2.4002 59.1852C2.16302 60.9013 2.18627 61.6706 2.1979 61.863C2.20487 61.9813 2.32346 62.3117 3.25825 62.7901C3.34661 62.8344 3.42335 62.8739 3.48613 62.9133C3.69309 63.0366 3.814 63.4903 3.75587 63.9292C3.71401 64.2448 3.5931 64.4667 3.45125 64.521L3.45358 64.516ZM15.0849 20.2126C14.9431 20.2668 14.7919 20.1534 14.7012 19.8871L11.4783 10.4978C11.3527 10.1279 11.3899 9.61508 11.5644 9.34386C11.7388 9.07756 11.9806 9.15647 12.1085 9.52632L15.3314 18.9156C15.457 19.2855 15.4198 19.7984 15.2454 20.0696C15.1965 20.1436 15.1407 20.1929 15.0849 20.2126Z" fill="white"/>
<path d="M26.5136 46.4869L23.107 36.6636L26.2857 46.8419C26.7949 48.5087 27.5274 50.3777 27.5623 52.4637C27.5949 54.3425 26.8926 55.7135 26.2508 56.7885C25.602 57.8783 24.7905 59.0175 23.9627 59.338C22.9837 59.7128 22.3442 58.0263 21.8303 56.4877C20.9188 53.7705 20.0794 50.935 19.205 48.1635L18.8702 47.0984L18.2028 47.3153C14.9427 48.3854 11.6942 49.712 8.48291 51.3196L7.90158 51.6106L7.78531 52.6708C7.43884 55.7973 7.14817 58.9977 6.72961 62.0848C6.50173 63.7762 6.16223 65.9559 5.29488 66.5625C4.4345 67.1641 3.31834 66.5132 2.48587 65.9855C1.67433 65.4677 0.737218 64.6886 0.453527 62.8196C0.151233 60.8174 0.539564 58.5243 0.746519 56.5715L2.06964 44.7214L0.50701 56.4236C0.169836 59.0224 -0.439402 62.3905 0.502359 64.7527C1.35808 66.9027 3.16254 67.8496 4.4252 68.0271C6.90168 68.3772 7.42256 63.145 7.96204 59.0964L8.72475 53.3661L13.5289 51.5464L18.3377 49.6824L20.0096 54.4658C21.1955 57.8635 22.4721 62.4941 24.7649 60.3292C25.9322 59.2246 27.4437 56.9858 27.8878 54.3031C28.3738 51.3739 27.2623 48.6813 26.5112 46.4819L26.5136 46.4869Z" fill="#F5B538"/>
</svg>
