<svg width="60" height="50" viewBox="0 0 60 50" fill="none" xmlns="http://www.w3.org/2000/svg">
<path d="M58.6829 29.1949C61.0944 23.7856 58.7251 17.4392 53.2024 14.7994C49.5354 13.0465 45.3699 13.3561 42.1138 15.2648L31.0111 9.95803C30.6013 6.2964 28.3249 2.90879 24.6568 1.1559C19.1342 -1.4839 12.4814 0.552425 9.50436 5.68979L9.48922 5.67724L0.458497 23.3526L0.476881 23.3662C-0.802408 26.4432 0.566636 30.0013 3.69186 31.4948C6.16393 32.6766 9.02854 32.228 10.9848 30.5786L17.9057 25.3157L37.4627 34.6628L37.3448 43.1762C37.1772 45.6811 38.5506 48.1546 41.0227 49.3354C44.1479 50.8289 47.9014 49.7193 49.6511 46.8671L49.6727 46.8724L58.7035 29.198L58.6851 29.1939L58.6829 29.1949Z" fill="#F6CF47"/>
<path d="M58.6827 26.5839L58.5493 26.8826L50.5666 42.4761L50.4437 42.6761C48.9786 45.0598 45.8207 45.9997 43.1846 44.7423L43.1846 44.7423C41.1055 43.7511 39.9611 41.6825 40.1008 39.5984L40.1017 39.5851L40.1019 39.5719L40.2098 31.7917L40.2143 31.4714L39.9251 31.3334L22.0186 22.7915L21.7437 22.6603L21.501 22.8445L15.1642 27.654L15.1542 27.6617L15.1445 27.6698C13.4997 29.0539 11.0864 29.4318 9.00435 28.4383L9.00428 28.4383C6.37576 27.1845 5.24115 24.2119 6.30691 21.6534L6.4007 21.4282L14.3833 5.834L14.5434 5.55821C17.135 1.09457 22.9416 -0.68825 27.7694 1.61504L27.7695 1.61506C30.9709 3.14205 32.9497 6.08758 33.3059 9.2635L33.3368 9.53948L33.5875 9.65905L43.7531 14.5088L43.9923 14.6229L44.2209 14.4891C47.0648 12.8251 50.7038 12.5556 53.9059 14.0834L54.1213 13.6322L53.906 14.0834C58.7259 16.383 60.7764 21.8963 58.6827 26.5839Z" fill="#F7F9FD" stroke="#F6CF47"/>
<path d="M26.3258 13.17L23.6605 11.9083C23.3535 11.7632 23.2282 11.407 23.3796 11.1138L24.6965 8.5602C24.848 8.26602 24.7227 7.9108 24.4156 7.76571L21.7504 6.50393C21.4433 6.35884 21.0726 6.47892 20.9211 6.7731L19.6042 9.32667C19.4527 9.62085 19.0809 9.74093 18.7749 9.59584L16.1661 8.36008C15.859 8.21499 15.4883 8.33506 15.3369 8.62924L14.0199 11.1828C13.8685 11.477 13.9938 11.8322 14.3008 11.9773L16.9097 13.2131C17.2167 13.3582 17.3421 13.7144 17.1906 14.0076L15.9008 16.5071C15.7494 16.8013 15.8747 17.1565 16.1818 17.3016L18.847 18.5634C19.154 18.7084 19.5248 18.5884 19.6762 18.2942L20.966 15.7947C21.1175 15.5005 21.4893 15.3804 21.7953 15.5255L24.4605 16.7873C24.7676 16.9324 25.1383 16.8123 25.2898 16.5181L26.6067 13.9645C26.7581 13.6703 26.6328 13.3151 26.3258 13.17Z" fill="#DFE5EC"/>
<path d="M27.5007 12.7247L24.8354 11.4629C24.5284 11.3179 24.4031 10.9616 24.5545 10.6685L25.8714 8.11489C26.0229 7.82071 25.8976 7.46549 25.5905 7.3204L22.9253 6.05862C22.6182 5.91353 22.2475 6.03361 22.096 6.32779L20.7791 8.88136C20.6276 9.17554 20.2558 9.29561 19.9498 9.15052L17.341 7.91476C17.0339 7.76967 16.6632 7.88975 16.5117 8.18393L15.1948 10.7375C15.0434 11.0317 15.1687 11.3869 15.4757 11.532L18.0846 12.7678C18.3916 12.9128 18.517 13.2691 18.3655 13.5622L17.0757 16.0618C16.9243 16.356 17.0496 16.7112 17.3566 16.8563L20.0219 18.118C20.3289 18.2631 20.6997 18.1431 20.8511 17.8489L22.1409 15.3493C22.2924 15.0552 22.6642 14.9351 22.9702 15.0802L25.6354 16.342C25.9425 16.487 26.3132 16.367 26.4647 16.0728L27.7816 13.5192C27.933 13.225 27.8077 12.8698 27.5007 12.7247Z" fill="#F6CF47"/>
<path d="M49.9614 24.0443C51.1017 24.0443 52.0261 23.1586 52.0261 22.0661C52.0261 20.9736 51.1017 20.0879 49.9614 20.0879C48.8211 20.0879 47.8967 20.9736 47.8967 22.0661C47.8967 23.1586 48.8211 24.0443 49.9614 24.0443Z" fill="#DFE5EC"/>
<path d="M45.0516 25.814C46.1317 25.4637 46.7109 24.3409 46.3453 23.306C45.9797 22.2711 44.8077 21.7162 43.7276 22.0664C42.6475 22.4167 42.0683 23.5396 42.4339 24.5745C42.7995 25.6093 43.9715 26.1643 45.0516 25.814Z" fill="#DFE5EC"/>
<path d="M52.2957 29.2442C53.3758 28.8939 53.955 27.771 53.5894 26.7362C53.2238 25.7013 52.0518 25.1463 50.9717 25.4966C49.8916 25.8469 49.3124 26.9698 49.678 28.0046C50.0436 29.0395 51.2155 29.5945 52.2957 29.2442Z" fill="#DFE5EC"/>
<path d="M46.9378 31.0875C48.0179 30.7372 48.5971 29.6143 48.2315 28.5794C47.8659 27.5446 46.6939 26.9896 45.6138 27.3399C44.5337 27.6902 43.9545 28.813 44.3201 29.8479C44.6857 30.8828 45.8577 31.4377 46.9378 31.0875Z" fill="#DFE5EC"/>
<path d="M50.9892 23.5184C52.1296 23.5184 53.054 22.6328 53.054 21.5402C53.054 20.4477 52.1296 19.562 50.9892 19.562C49.8489 19.562 48.9245 20.4477 48.9245 21.5402C48.9245 22.6328 49.8489 23.5184 50.9892 23.5184Z" fill="#F6CF47"/>
<path d="M46.0794 25.2886C47.1596 24.9383 47.7388 23.8155 47.3732 22.7806C47.0076 21.7457 45.8356 21.1908 44.7555 21.5411C43.6754 21.8913 43.0961 23.0142 43.4617 24.0491C43.8273 25.0839 44.9993 25.6389 46.0794 25.2886Z" fill="#F6CF47"/>
<path d="M53.3244 28.7183C54.4045 28.368 54.9837 27.2451 54.6181 26.2103C54.2525 25.1754 53.0805 24.6205 52.0004 24.9707C50.9203 25.321 50.3411 26.4439 50.7067 27.4788C51.0723 28.5136 52.2443 29.0686 53.3244 28.7183Z" fill="#F6CF47"/>
<path d="M47.9648 30.5621C49.0449 30.2118 49.6241 29.0889 49.2585 28.054C48.8929 27.0192 47.7209 26.4642 46.6408 26.8145C45.5607 27.1648 44.9815 28.2877 45.3471 29.3225C45.7127 30.3574 46.8847 30.9123 47.9648 30.5621Z" fill="#F6CF47"/>
</svg>
