<svg width="85" height="80" viewBox="0 0 85 80" fill="none" xmlns="http://www.w3.org/2000/svg">
<rect width="85" height="80" rx="40" fill="#914CF5"/>
<path d="M37.8514 11.5629C38.1347 11.4223 38.4553 11.3749 38.7672 11.4274L69.894 16.6688C70.7692 16.8162 71.3257 17.687 71.092 18.5431L57.4594 68.4725C57.2565 69.2159 56.5232 69.6846 55.7633 69.5566L14.5797 62.6217C13.7046 62.4744 13.148 61.6036 13.3817 60.7475L24.9022 18.5491C25.015 18.136 25.299 17.7908 25.6826 17.6005L37.8514 11.5629Z" fill="#D6D3F3" stroke="#D6D3F3"/>
<path d="M34.0736 19.1374C35.0867 19.308 36.0643 18.6833 36.335 17.6922L37.0359 15.1264C37.4908 13.4612 35.7641 12.0405 34.2177 12.8078L30.1791 14.8116C28.4427 15.6731 28.8244 18.2535 30.7359 18.5754L34.0736 19.1374Z" fill="#D6D3F3"/>
<path d="M51.172 36.2573C51.9089 35.6787 52.7541 35.0993 53.1448 34.2487C53.469 33.5484 52.8661 32.8724 52.0814 32.8779C51.1574 32.8838 50.3224 33.3414 49.5372 33.7172C48.6733 34.132 47.8432 34.5905 47.0117 35.0582C45.8446 35.7115 44.7083 36.4271 43.5813 37.1489C43.196 36.4051 42.8116 35.6566 42.4213 34.9119C42.0311 34.1673 41.6517 33.4197 41.2282 32.6884C40.7801 31.9198 40.3492 31.0495 39.6165 30.4703C38.9798 29.9643 37.7199 30.2507 37.6837 31.1087C37.6133 32.7824 38.6217 34.5713 39.2853 36.1121C39.7161 37.1058 40.1651 38.0835 40.6291 39.0637C39.7943 39.6116 38.9638 40.165 38.1375 40.7238C36.6436 41.7257 34.6775 42.7145 33.7739 44.2527C33.2396 45.1598 34.2431 46.6107 35.4178 46.3717C37.3079 45.9873 38.8339 44.6109 40.3575 43.5855C40.9911 43.1605 41.629 42.7409 42.2676 42.3166C42.7918 43.307 43.3276 44.2898 43.8915 45.2584C44.3438 46.0325 44.8012 46.8075 45.2708 47.5703C45.5057 47.9517 45.7201 48.3629 46.012 48.7112C46.5436 49.3514 47.1467 49.567 47.9958 49.577C48.603 49.5843 49.1113 49.1381 49.3684 48.6829C49.9767 47.6125 49.1782 46.6282 48.574 45.7146C48.1177 45.0252 47.6723 44.333 47.2376 43.6378C46.5554 42.5448 45.9121 41.4347 45.2805 40.317C46.5612 39.4786 47.8562 38.6474 49.098 37.7645C49.7942 37.274 50.4955 36.7843 51.1662 36.261L51.172 36.2573Z" fill="#EF3C44"/>
<path d="M36.2925 9.50053C36.8294 9.21306 37.4466 9.11196 38.0472 9.21309L65.6157 13.8554C67.2134 14.1244 68.2335 15.7094 67.8164 17.275L55.0161 65.3276C54.6507 66.6991 53.3017 67.5673 51.9021 67.3316L15.5139 61.2042C13.9162 60.9352 12.8962 59.3502 13.3132 57.7846L24.1838 16.9724C24.3797 16.2367 24.8719 15.6152 25.5431 15.2558L36.2925 9.50053Z" fill="white" stroke="#D6D3F3" stroke-width="0.5"/>
<path d="M32.2882 16.9991C33.7005 17.2369 35.0619 16.3609 35.4307 14.977C36.056 12.6308 33.5797 10.6695 31.4391 11.8156C29.1062 13.0646 29.6787 16.5596 32.2882 16.9991Z" fill="#D6D3F3"/>
<path d="M49.4659 34.3479C50.1977 33.7989 51.0378 33.2499 51.4221 32.4379C51.7409 31.7694 51.1339 31.1176 50.3502 31.1173C49.4274 31.1164 48.5966 31.5488 47.815 31.9032C46.9551 32.2944 46.1293 32.7277 45.302 33.1698C44.1409 33.7873 43.0111 34.4646 41.8905 35.1481C41.5005 34.4328 41.1112 33.7132 40.7161 32.9971C40.3211 32.2811 39.9368 31.5623 39.5087 30.8588C39.0557 30.1194 38.619 29.2827 37.8831 28.7228C37.2436 28.2335 35.9872 28.4989 35.9571 29.3205C35.8987 30.9232 36.9186 32.6438 37.5923 34.1245C38.0297 35.0793 38.485 36.0191 38.9554 36.9613C38.1255 37.4802 37.2999 38.0043 36.4786 38.5337C34.9936 39.4828 33.0369 40.4161 32.1453 41.883C31.618 42.7481 32.6307 44.145 33.8022 43.9244C35.6873 43.5696 37.2017 42.262 38.7163 41.2907C39.3461 40.888 39.9802 40.4906 40.6151 40.0888C41.1457 41.0411 41.6878 41.9864 42.2579 42.9181C42.7152 43.6629 43.1775 44.4084 43.652 45.1424C43.8893 45.5094 44.1063 45.9048 44.4004 46.2405C44.9359 46.8575 45.5398 47.0682 46.388 47.0839C46.9945 47.0952 47.499 46.6714 47.7526 46.2372C48.3525 45.2162 47.548 44.2677 46.9381 43.3883C46.4775 42.7248 46.0276 42.0585 45.5885 41.3895C44.8994 40.3378 44.249 39.2699 43.6102 38.1948C44.8834 37.4008 46.171 36.6138 47.4051 35.7769C48.097 35.312 48.7939 34.8479 49.4601 34.3514L49.4659 34.3479Z" fill="#EF3C44"/>
</svg>
