<svg width="90" height="80" viewBox="0 0 90 80" fill="none" xmlns="http://www.w3.org/2000/svg">
<g clip-path="url(#clip0_429_2746)">
<path d="M63.1133 73.3381C62.5583 74.689 61.1112 75.4439 59.6857 75.1262L3.47559 62.5974C1.65975 62.1927 0.646294 60.2499 1.35337 58.5291L24.4424 2.33786C24.9974 0.987041 26.4446 0.23218 27.87 0.54993L73.6159 10.7474C74.2653 10.8922 74.8482 11.2487 75.2728 11.761L82.9076 20.9711C83.6155 21.825 83.7944 22.9998 83.3729 24.0257L63.1133 73.3381Z" fill="#FADF81"/>
<path d="M71.4424 19.0166L84.0579 22.3585L74.6178 10.9707L71.4424 19.0166Z" fill="#FADF81"/>
<g style="mix-blend-mode:multiply">
<path d="M71.4424 19.0166L84.0579 22.3585L74.6178 10.9707L71.4424 19.0166Z" fill="#FADF81"/>
</g>
<path d="M26.1841 15.1152L74.8827 25.9699" stroke="#F5C341" stroke-width="0.47" stroke-miterlimit="10"/>
<path d="M23.5679 21.4822L72.2593 32.3368" stroke="#F5C341" stroke-width="0.47" stroke-miterlimit="10"/>
<path d="M20.9517 27.8545L69.6431 38.7091" stroke="#F5C341" stroke-width="0.47" stroke-miterlimit="10"/>
<path d="M18.3281 34.2268L67.0268 45.0814" stroke="#F5C341" stroke-width="0.47" stroke-miterlimit="10"/>
<path d="M15.7119 40.5991L64.4105 51.4537" stroke="#F5C341" stroke-width="0.47" stroke-miterlimit="10"/>
<path d="M13.0957 46.9663L61.7943 57.8209" stroke="#F5C341" stroke-width="0.47" stroke-miterlimit="10"/>
<path d="M10.4795 53.3386L59.171 64.1932" stroke="#F5C341" stroke-width="0.47" stroke-miterlimit="10"/>
<g style="mix-blend-mode:multiply" opacity="0.32">
<path d="M63.1133 73.3381C62.5583 74.689 61.1112 75.4439 59.6857 75.1262L3.47559 62.5974C1.65975 62.1927 0.646294 60.2499 1.35337 58.5291L24.4424 2.33786C24.9974 0.987041 26.4446 0.23218 27.87 0.54993L73.6159 10.7474C74.2653 10.8922 74.8482 11.2487 75.2728 11.761L82.9076 20.9711C83.6155 21.825 83.7944 22.9998 83.3729 24.0257L63.1133 73.3381Z" fill="#FADF81"/>
</g>
<g style="mix-blend-mode:multiply">
<path d="M73.9295 15.2313L76.3285 15.7807C77.3291 16.0099 78.0565 14.8469 77.4124 14.0474C77.2641 13.8633 77.0595 13.7328 76.8299 13.676L35.3181 3.40144C33.9849 3.07147 32.5979 3.68894 31.951 4.90043L3.15294 58.8295C2.23275 60.5527 3.17875 62.6817 5.07437 63.1538L7.51378 63.7612C8.38396 63.9779 9.30544 63.794 10.0257 63.2598L74.5531 15.4055" fill="#FADF81"/>
</g>
<path d="M65.8888 78.5841C65.4532 79.4118 64.502 79.8271 63.5988 79.5838L4.99455 63.7981C3.75698 63.4647 3.14797 62.0697 3.74486 60.9355L33.6483 4.11367C34.0839 3.28588 35.0352 2.87062 35.9384 3.11393L83.26 15.8613C83.6996 15.9797 84.0857 16.2446 84.3544 16.6122L91.8441 26.8576C92.2948 27.4742 92.3551 28.2935 91.9994 28.9694L65.8888 78.5841Z" fill="white"/>
<path d="M78.7425 21.8403C78.2011 22.9361 78.7605 24.257 79.9243 24.6306L84.2799 26.0287C86.1107 26.6164 87.6351 24.5343 86.5219 22.9665L83.5462 18.7758C82.6698 17.5416 80.793 17.6906 80.1224 19.0478L78.7425 21.8403Z" fill="#FADF81"/>
<g style="mix-blend-mode:multiply">
<path d="M78.7425 21.8403C78.2011 22.9361 78.7605 24.257 79.9243 24.6306L84.2799 26.0287C86.1107 26.6164 87.6351 24.5343 86.5219 22.9665L83.5462 18.7758C82.6698 17.5416 80.793 17.6906 80.1224 19.0478L78.7425 21.8403Z" fill="#FADF81"/>
</g>
<path d="M32.9077 17.8181L80.524 31.0221" stroke="#F5C341" stroke-width="0.47" stroke-miterlimit="10"/>
<path d="M29.7256 24.0481L77.3347 37.2521" stroke="#F5C341" stroke-width="0.47" stroke-miterlimit="10"/>
<path d="M26.543 30.2778L74.1521 43.4818" stroke="#F5C341" stroke-width="0.47" stroke-miterlimit="10"/>
<path d="M23.353 36.5022L70.9693 49.7115" stroke="#F5C341" stroke-width="0.47" stroke-miterlimit="10"/>
<path d="M20.1704 42.7322L67.7867 55.9362" stroke="#F5C341" stroke-width="0.47" stroke-miterlimit="10"/>
<path d="M16.9878 48.9619L64.5969 62.1659" stroke="#F5C341" stroke-width="0.47" stroke-miterlimit="10"/>
<path d="M13.8057 55.1917L61.4148 68.3956" stroke="#F5C341" stroke-width="0.47" stroke-miterlimit="10"/>
<path d="M42.2188 3.80127L39.0363 10.0311C38.642 10.7966 39.1724 11.6466 40.2046 11.937C41.244 12.2273 42.398 11.8366 42.7922 11.0764L44.0323 8.65311C44.2616 8.20964 43.9534 7.70809 43.3513 7.53914C42.7492 7.3702 42.0683 7.59722 41.8389 8.04069L40.9572 9.77236" stroke="#F5C341" stroke-width="0.93" stroke-miterlimit="10" stroke-linecap="round"/>
</g>
<defs>
<clipPath id="clip0_429_2746">
<rect width="90" height="80" fill="white"/>
</clipPath>
</defs>
</svg>
