<svg width="320" height="204" viewBox="0 0 320 204" fill="none" xmlns="http://www.w3.org/2000/svg">
<rect width="320" height="204" fill="white"/>
<mask id="path-1-inside-1_420_601" fill="white">
<path d="M0 12C0 5.37258 5.37258 0 12 0H160V28H0V12Z"/>
</mask>
<path d="M-1 12C-1 4.8203 4.8203 -1 12 -1H160V1H12C5.92487 1 1 5.92487 1 12H-1ZM160 29H-1L1 27H160V29ZM-1 29V12C-1 4.8203 4.8203 -1 12 -1V1C5.92487 1 1 5.92487 1 12V27L-1 29ZM160 0V28V0Z" fill="#8D47F3" mask="url(#path-1-inside-1_420_601)"/>
<path d="M78.504 20V8.8H80.584V20H78.504Z" fill="black"/>
<path d="M160.5 0.5H308C314.351 0.5 319.5 5.64873 319.5 12V27.5H160.5V0.5Z" stroke="#8D47F3"/>
<path d="M228.756 20V15.568L229.22 16.848L224.356 8.8H226.58L230.484 15.28H229.236L233.172 8.8H235.22L230.356 16.848L230.836 15.568V20H228.756ZM239.277 20.112C238.402 20.112 237.624 19.9253 236.941 19.552C236.258 19.168 235.72 18.6453 235.325 17.984C234.93 17.3227 234.733 16.5707 234.733 15.728C234.733 14.8747 234.93 14.1227 235.325 13.472C235.72 12.8107 236.258 12.2933 236.941 11.92C237.624 11.5467 238.402 11.36 239.277 11.36C240.162 11.36 240.946 11.5467 241.629 11.92C242.322 12.2933 242.861 12.8053 243.245 13.456C243.64 14.1067 243.837 14.864 243.837 15.728C243.837 16.5707 243.64 17.3227 243.245 17.984C242.861 18.6453 242.322 19.168 241.629 19.552C240.946 19.9253 240.162 20.112 239.277 20.112ZM239.277 18.4C239.768 18.4 240.205 18.2933 240.589 18.08C240.973 17.8667 241.272 17.5573 241.485 17.152C241.709 16.7467 241.821 16.272 241.821 15.728C241.821 15.1733 241.709 14.6987 241.485 14.304C241.272 13.8987 240.973 13.5893 240.589 13.376C240.205 13.1627 239.773 13.056 239.293 13.056C238.802 13.056 238.365 13.1627 237.981 13.376C237.608 13.5893 237.309 13.8987 237.085 14.304C236.861 14.6987 236.749 15.1733 236.749 15.728C236.749 16.272 236.861 16.7467 237.085 17.152C237.309 17.5573 237.608 17.8667 237.981 18.08C238.365 18.2933 238.797 18.4 239.277 18.4ZM249.366 20.112C248.64 20.112 248 19.9787 247.446 19.712C246.891 19.4347 246.459 19.0187 246.15 18.464C245.84 17.8987 245.686 17.1893 245.686 16.336V11.456H247.686V16.064C247.686 16.832 247.856 17.408 248.198 17.792C248.55 18.1653 249.046 18.352 249.686 18.352C250.155 18.352 250.56 18.256 250.902 18.064C251.254 17.872 251.526 17.584 251.718 17.2C251.92 16.816 252.022 16.3413 252.022 15.776V11.456H254.022V20H252.118V17.696L252.454 18.4C252.166 18.9547 251.744 19.3813 251.19 19.68C250.635 19.968 250.027 20.112 249.366 20.112Z" fill="black"/>
<mask id="path-6-inside-2_420_601" fill="white">
<path d="M0 28H160V98H0V28Z"/>
</mask>
<path d="M0 98H-1V99H0V98ZM160 97H0V99H160V97ZM1 98V28H-1V98H1Z" fill="#8D47F3" mask="url(#path-6-inside-2_420_601)"/>
<path d="M65.484 54L70.556 42.8H72.14L77.228 54H75.548L71.02 43.696H71.66L67.132 54H65.484ZM67.644 51.2L68.076 49.92H74.38L74.844 51.2H67.644ZM89.2828 45.44C89.9654 45.44 90.5681 45.5733 91.0908 45.84C91.6134 46.1067 92.0188 46.512 92.3068 47.056C92.6054 47.6 92.7548 48.288 92.7548 49.12V54H91.2188V49.296C91.2188 48.4747 91.0268 47.856 90.6428 47.44C90.2588 47.024 89.7201 46.816 89.0268 46.816C88.5148 46.816 88.0668 46.9227 87.6828 47.136C87.2988 47.3493 87.0001 47.664 86.7868 48.08C86.5841 48.496 86.4828 49.0133 86.4828 49.632V54H84.9468V49.296C84.9468 48.4747 84.7548 47.856 84.3708 47.44C83.9974 47.024 83.4588 46.816 82.7548 46.816C82.2534 46.816 81.8108 46.9227 81.4268 47.136C81.0428 47.3493 80.7441 47.664 80.5308 48.08C80.3174 48.496 80.2108 49.0133 80.2108 49.632V54H78.6748V45.52H80.1468V47.776L79.9068 47.2C80.1734 46.6453 80.5841 46.2133 81.1388 45.904C81.6934 45.5947 82.3388 45.44 83.0748 45.44C83.8854 45.44 84.5841 45.6427 85.1708 46.048C85.7574 46.4427 86.1414 47.0453 86.3228 47.856L85.6988 47.6C85.9548 46.9493 86.4028 46.4267 87.0428 46.032C87.6828 45.6373 88.4294 45.44 89.2828 45.44Z" fill="black"/>
<path d="M71.604 77.12L71.508 72.8H72.852L72.74 77.12H71.604ZM75.5394 84V72.8H76.8514L81.8754 81.264H81.1714L86.1314 72.8H87.4434L87.4594 84H85.9234L85.9074 75.216H86.2754L81.8594 82.64H81.1234L76.6754 75.216H77.0754V84H75.5394Z" fill="black"/>
<g opacity="0.8">
<mask id="path-10-inside-3_420_601" fill="white">
<path d="M160 28H320V98H160V28Z"/>
</mask>
<path d="M320 98V99H321V98H320ZM160 98H159V99H160V98ZM319 28V98H321V28H319ZM320 97H160V99H320V97ZM161 98V28H159V98H161Z" fill="#8D47F3" mask="url(#path-10-inside-3_420_601)"/>
<path d="M225.984 54L231.056 42.8H232.64L237.728 54H236.048L231.52 43.696H232.16L227.632 54H225.984ZM228.144 51.2L228.576 49.92H234.88L235.344 51.2H228.144ZM239.175 54V45.52H240.647V47.824L240.503 47.248C240.737 46.6613 241.132 46.2133 241.687 45.904C242.241 45.5947 242.924 45.44 243.735 45.44V46.928C243.671 46.9173 243.607 46.912 243.543 46.912C243.489 46.912 243.436 46.912 243.383 46.912C242.561 46.912 241.911 47.1573 241.431 47.648C240.951 48.1387 240.711 48.848 240.711 49.776V54H239.175ZM249.326 54.096C248.419 54.096 247.619 53.9093 246.926 53.536C246.243 53.1627 245.71 52.6507 245.326 52C244.952 51.3493 244.766 50.6027 244.766 49.76C244.766 48.9173 244.947 48.1707 245.31 47.52C245.683 46.8693 246.19 46.3627 246.83 46C247.48 45.6267 248.211 45.44 249.022 45.44C249.843 45.44 250.568 45.6213 251.198 45.984C251.827 46.3467 252.318 46.8587 252.67 47.52C253.032 48.1707 253.214 48.9333 253.214 49.808C253.214 49.872 253.208 49.9467 253.198 50.032C253.198 50.1173 253.192 50.1973 253.182 50.272H245.966V49.168H252.382L251.758 49.552C251.768 49.008 251.656 48.5227 251.422 48.096C251.187 47.6693 250.862 47.3387 250.446 47.104C250.04 46.8587 249.566 46.736 249.022 46.736C248.488 46.736 248.014 46.8587 247.598 47.104C247.182 47.3387 246.856 47.6747 246.622 48.112C246.387 48.5387 246.27 49.0293 246.27 49.584V49.84C246.27 50.4053 246.398 50.912 246.654 51.36C246.92 51.7973 247.288 52.1387 247.758 52.384C248.227 52.6293 248.766 52.752 249.374 52.752C249.875 52.752 250.328 52.6667 250.734 52.496C251.15 52.3253 251.512 52.0693 251.822 51.728L252.67 52.72C252.286 53.168 251.806 53.5093 251.23 53.744C250.664 53.9787 250.03 54.096 249.326 54.096Z" fill="black"/>
<path d="M231.104 77.12L231.008 72.8H232.352L232.24 77.12H231.104ZM234.815 84V75.52H236.287V77.824L236.143 77.248C236.378 76.6613 236.773 76.2133 237.327 75.904C237.882 75.5947 238.565 75.44 239.375 75.44V76.928C239.311 76.9173 239.247 76.912 239.183 76.912C239.13 76.912 239.077 76.912 239.023 76.912C238.202 76.912 237.551 77.1573 237.071 77.648C236.591 78.1387 236.351 78.848 236.351 79.776V84H234.815ZM244.966 84.096C244.06 84.096 243.26 83.9093 242.566 83.536C241.884 83.1627 241.35 82.6507 240.966 82C240.593 81.3493 240.406 80.6027 240.406 79.76C240.406 78.9173 240.588 78.1707 240.95 77.52C241.324 76.8693 241.83 76.3627 242.47 76C243.121 75.6267 243.852 75.44 244.662 75.44C245.484 75.44 246.209 75.6213 246.838 75.984C247.468 76.3467 247.958 76.8587 248.31 77.52C248.673 78.1707 248.854 78.9333 248.854 79.808C248.854 79.872 248.849 79.9467 248.838 80.032C248.838 80.1173 248.833 80.1973 248.822 80.272H241.606V79.168H248.022L247.398 79.552C247.409 79.008 247.297 78.5227 247.062 78.096C246.828 77.6693 246.502 77.3387 246.086 77.104C245.681 76.8587 245.206 76.736 244.662 76.736C244.129 76.736 243.654 76.8587 243.238 77.104C242.822 77.3387 242.497 77.6747 242.262 78.112C242.028 78.5387 241.91 79.0293 241.91 79.584V79.84C241.91 80.4053 242.038 80.912 242.294 81.36C242.561 81.7973 242.929 82.1387 243.398 82.384C243.868 82.6293 244.406 82.752 245.014 82.752C245.516 82.752 245.969 82.6667 246.374 82.496C246.79 82.3253 247.153 82.0693 247.462 81.728L248.31 82.72C247.926 83.168 247.446 83.5093 246.87 83.744C246.305 83.9787 245.67 84.096 244.966 84.096Z" fill="black"/>
</g>
<mask id="path-14-inside-4_420_601" fill="white">
<path d="M0 98H320V138H0V98Z"/>
</mask>
<path d="M320 138V139H321V138H320ZM0 138H-1V139H0V138ZM319 98V138H321V98H319ZM320 137H0V139H320V137ZM1 138V98H-1V138H1Z" fill="#8D47F3" mask="url(#path-14-inside-4_420_601)"/>
<path d="M123.424 117.456H128.992V119.168H123.424V117.456ZM123.584 122.256H129.904V124H121.504V112.8H129.68V114.544H123.584V122.256ZM130.722 124L134.482 119.104L134.45 120.176L130.866 115.456H133.09L135.602 118.816H134.754L137.282 115.456H139.442L135.826 120.176L135.842 119.104L139.586 124H137.33L134.69 120.432L135.522 120.544L132.93 124H130.722ZM143.546 124.112C142.831 124.112 142.143 124.021 141.482 123.84C140.831 123.648 140.314 123.419 139.93 123.152L140.698 121.632C141.082 121.877 141.54 122.08 142.074 122.24C142.607 122.4 143.14 122.48 143.674 122.48C144.303 122.48 144.756 122.395 145.034 122.224C145.322 122.053 145.466 121.824 145.466 121.536C145.466 121.301 145.37 121.125 145.178 121.008C144.986 120.88 144.735 120.784 144.426 120.72C144.116 120.656 143.77 120.597 143.386 120.544C143.012 120.491 142.634 120.421 142.25 120.336C141.876 120.24 141.535 120.107 141.226 119.936C140.916 119.755 140.666 119.515 140.474 119.216C140.282 118.917 140.186 118.523 140.186 118.032C140.186 117.488 140.34 117.019 140.65 116.624C140.959 116.219 141.391 115.909 141.946 115.696C142.511 115.472 143.178 115.36 143.946 115.36C144.522 115.36 145.103 115.424 145.69 115.552C146.276 115.68 146.762 115.861 147.146 116.096L146.378 117.616C145.972 117.371 145.562 117.205 145.146 117.12C144.74 117.024 144.335 116.976 143.93 116.976C143.322 116.976 142.868 117.067 142.57 117.248C142.282 117.429 142.138 117.659 142.138 117.936C142.138 118.192 142.234 118.384 142.426 118.512C142.618 118.64 142.868 118.741 143.178 118.816C143.487 118.891 143.828 118.955 144.202 119.008C144.586 119.051 144.964 119.12 145.338 119.216C145.711 119.312 146.052 119.445 146.362 119.616C146.682 119.776 146.938 120.005 147.13 120.304C147.322 120.603 147.418 120.992 147.418 121.472C147.418 122.005 147.258 122.469 146.938 122.864C146.628 123.259 146.186 123.568 145.61 123.792C145.034 124.005 144.346 124.112 143.546 124.112ZM154.404 124V122.272L154.292 121.904V118.88C154.292 118.293 154.116 117.84 153.764 117.52C153.412 117.189 152.879 117.024 152.164 117.024C151.684 117.024 151.209 117.099 150.74 117.248C150.281 117.397 149.892 117.605 149.572 117.872L148.788 116.416C149.247 116.064 149.791 115.803 150.42 115.632C151.06 115.451 151.721 115.36 152.404 115.36C153.641 115.36 154.596 115.659 155.268 116.256C155.951 116.843 156.292 117.755 156.292 118.992V124H154.404ZM151.716 124.112C151.076 124.112 150.516 124.005 150.036 123.792C149.556 123.568 149.183 123.264 148.916 122.88C148.66 122.485 148.532 122.043 148.532 121.552C148.532 121.072 148.644 120.64 148.868 120.256C149.103 119.872 149.481 119.568 150.004 119.344C150.527 119.12 151.22 119.008 152.084 119.008H154.564V120.336H152.228C151.545 120.336 151.087 120.448 150.852 120.672C150.617 120.885 150.5 121.152 150.5 121.472C150.5 121.835 150.644 122.123 150.932 122.336C151.22 122.549 151.62 122.656 152.132 122.656C152.623 122.656 153.06 122.544 153.444 122.32C153.839 122.096 154.121 121.765 154.292 121.328L154.628 122.528C154.436 123.029 154.089 123.419 153.588 123.696C153.097 123.973 152.473 124.112 151.716 124.112ZM169.643 115.36C170.326 115.36 170.928 115.493 171.451 115.76C171.984 116.027 172.4 116.437 172.699 116.992C172.998 117.536 173.147 118.24 173.147 119.104V124H171.147V119.36C171.147 118.603 170.982 118.037 170.651 117.664C170.32 117.291 169.846 117.104 169.227 117.104C168.79 117.104 168.4 117.2 168.059 117.392C167.728 117.584 167.467 117.867 167.275 118.24C167.094 118.613 167.003 119.088 167.003 119.664V124H165.003V119.36C165.003 118.603 164.838 118.037 164.507 117.664C164.176 117.291 163.702 117.104 163.083 117.104C162.646 117.104 162.256 117.2 161.915 117.392C161.584 117.584 161.323 117.867 161.131 118.24C160.95 118.613 160.859 119.088 160.859 119.664V124H158.859V115.456H160.763V117.728L160.427 117.056C160.715 116.501 161.131 116.08 161.675 115.792C162.23 115.504 162.859 115.36 163.563 115.36C164.363 115.36 165.056 115.557 165.643 115.952C166.24 116.347 166.635 116.944 166.827 117.744L166.043 117.472C166.32 116.832 166.779 116.32 167.419 115.936C168.059 115.552 168.8 115.36 169.643 115.36ZM180.439 124.112C179.745 124.112 179.111 123.952 178.535 123.632C177.969 123.312 177.516 122.832 177.175 122.192C176.844 121.541 176.679 120.72 176.679 119.728C176.679 118.725 176.839 117.904 177.159 117.264C177.489 116.624 177.937 116.149 178.503 115.84C179.068 115.52 179.713 115.36 180.439 115.36C181.281 115.36 182.023 115.541 182.663 115.904C183.313 116.267 183.825 116.773 184.199 117.424C184.583 118.075 184.775 118.843 184.775 119.728C184.775 120.613 184.583 121.387 184.199 122.048C183.825 122.699 183.313 123.205 182.663 123.568C182.023 123.931 181.281 124.112 180.439 124.112ZM175.703 127.104V115.456H177.607V117.472L177.543 119.744L177.703 122.016V127.104H175.703ZM180.215 122.4C180.695 122.4 181.121 122.293 181.495 122.08C181.879 121.867 182.183 121.557 182.407 121.152C182.631 120.747 182.743 120.272 182.743 119.728C182.743 119.173 182.631 118.699 182.407 118.304C182.183 117.899 181.879 117.589 181.495 117.376C181.121 117.163 180.695 117.056 180.215 117.056C179.735 117.056 179.303 117.163 178.919 117.376C178.535 117.589 178.231 117.899 178.007 118.304C177.783 118.699 177.671 119.173 177.671 119.728C177.671 120.272 177.783 120.747 178.007 121.152C178.231 121.557 178.535 121.867 178.919 122.08C179.303 122.293 179.735 122.4 180.215 122.4ZM186.671 124V112.128H188.671V124H186.671ZM195.312 124.112C194.363 124.112 193.531 123.925 192.816 123.552C192.112 123.168 191.563 122.645 191.168 121.984C190.784 121.323 190.592 120.571 190.592 119.728C190.592 118.875 190.779 118.123 191.152 117.472C191.536 116.811 192.059 116.293 192.72 115.92C193.392 115.547 194.155 115.36 195.008 115.36C195.84 115.36 196.582 115.541 197.232 115.904C197.883 116.267 198.395 116.779 198.768 117.44C199.142 118.101 199.328 118.88 199.328 119.776C199.328 119.861 199.323 119.957 199.312 120.064C199.312 120.171 199.307 120.272 199.296 120.368H192.176V119.04H198.24L197.456 119.456C197.467 118.965 197.366 118.533 197.152 118.16C196.939 117.787 196.646 117.493 196.272 117.28C195.91 117.067 195.488 116.96 195.008 116.96C194.518 116.96 194.086 117.067 193.712 117.28C193.35 117.493 193.062 117.792 192.848 118.176C192.646 118.549 192.544 118.992 192.544 119.504V119.824C192.544 120.336 192.662 120.789 192.896 121.184C193.131 121.579 193.462 121.883 193.888 122.096C194.315 122.309 194.806 122.416 195.36 122.416C195.84 122.416 196.272 122.341 196.656 122.192C197.04 122.043 197.382 121.808 197.68 121.488L198.752 122.72C198.368 123.168 197.883 123.515 197.296 123.76C196.72 123.995 196.059 124.112 195.312 124.112Z" fill="black"/>
<mask id="path-17-inside-5_420_601" fill="white">
<path d="M0 138H160V204H0V138Z"/>
</mask>
<path d="M0 204H-1V205H0V204ZM160 203H0V205H160V203ZM1 204V138H-1V204H1Z" fill="#8D47F3" mask="url(#path-17-inside-5_420_601)"/>
<path d="M9.26 160V151.6H10.46V160H9.26ZM19.9775 160V158.656L19.9175 158.404V156.112C19.9175 155.624 19.7735 155.248 19.4855 154.984C19.2055 154.712 18.7815 154.576 18.2135 154.576C17.8375 154.576 17.4695 154.64 17.1095 154.768C16.7495 154.888 16.4455 155.052 16.1975 155.26L15.7175 154.396C16.0455 154.132 16.4375 153.932 16.8935 153.796C17.3575 153.652 17.8415 153.58 18.3455 153.58C19.2175 153.58 19.8895 153.792 20.3615 154.216C20.8335 154.64 21.0695 155.288 21.0695 156.16V160H19.9775ZM17.8895 160.072C17.4175 160.072 17.0015 159.992 16.6415 159.832C16.2895 159.672 16.0175 159.452 15.8255 159.172C15.6335 158.884 15.5375 158.56 15.5375 158.2C15.5375 157.856 15.6175 157.544 15.7775 157.264C15.9455 156.984 16.2135 156.76 16.5815 156.592C16.9575 156.424 17.4615 156.34 18.0935 156.34H20.1095V157.168H18.1415C17.5655 157.168 17.1775 157.264 16.9775 157.456C16.7775 157.648 16.6775 157.88 16.6775 158.152C16.6775 158.464 16.8015 158.716 17.0495 158.908C17.2975 159.092 17.6415 159.184 18.0815 159.184C18.5135 159.184 18.8895 159.088 19.2095 158.896C19.5375 158.704 19.7735 158.424 19.9175 158.056L20.1455 158.848C19.9935 159.224 19.7255 159.524 19.3415 159.748C18.9575 159.964 18.4735 160.072 17.8895 160.072ZM31.1574 153.58C31.6694 153.58 32.1214 153.68 32.5134 153.88C32.9054 154.08 33.2094 154.384 33.4254 154.792C33.6494 155.2 33.7614 155.716 33.7614 156.34V160H32.6094V156.472C32.6094 155.856 32.4654 155.392 32.1774 155.08C31.8894 154.768 31.4854 154.612 30.9654 154.612C30.5814 154.612 30.2454 154.692 29.9574 154.852C29.6694 155.012 29.4454 155.248 29.2854 155.56C29.1334 155.872 29.0574 156.26 29.0574 156.724V160H27.9054V156.472C27.9054 155.856 27.7614 155.392 27.4734 155.08C27.1934 154.768 26.7894 154.612 26.2614 154.612C25.8854 154.612 25.5534 154.692 25.2654 154.852C24.9774 155.012 24.7534 155.248 24.5934 155.56C24.4334 155.872 24.3534 156.26 24.3534 156.724V160H23.2014V153.64H24.3054V155.332L24.1254 154.9C24.3254 154.484 24.6334 154.16 25.0494 153.928C25.4654 153.696 25.9494 153.58 26.5014 153.58C27.1094 153.58 27.6334 153.732 28.0734 154.036C28.5134 154.332 28.8014 154.784 28.9374 155.392L28.4694 155.2C28.6614 154.712 28.9974 154.32 29.4774 154.024C29.9574 153.728 30.5174 153.58 31.1574 153.58ZM40.9277 160.072C40.3997 160.072 39.8957 160 39.4157 159.856C38.9437 159.712 38.5717 159.536 38.2997 159.328L38.7797 158.416C39.0517 158.6 39.3877 158.756 39.7877 158.884C40.1877 159.012 40.5957 159.076 41.0117 159.076C41.5477 159.076 41.9317 159 42.1637 158.848C42.4037 158.696 42.5237 158.484 42.5237 158.212C42.5237 158.012 42.4517 157.856 42.3077 157.744C42.1637 157.632 41.9717 157.548 41.7317 157.492C41.4997 157.436 41.2397 157.388 40.9517 157.348C40.6637 157.3 40.3757 157.244 40.0877 157.18C39.7997 157.108 39.5357 157.012 39.2957 156.892C39.0557 156.764 38.8637 156.592 38.7197 156.376C38.5757 156.152 38.5037 155.856 38.5037 155.488C38.5037 155.104 38.6117 154.768 38.8277 154.48C39.0437 154.192 39.3477 153.972 39.7397 153.82C40.1397 153.66 40.6117 153.58 41.1557 153.58C41.5717 153.58 41.9917 153.632 42.4157 153.736C42.8477 153.832 43.1997 153.972 43.4717 154.156L42.9797 155.068C42.6917 154.876 42.3917 154.744 42.0797 154.672C41.7677 154.6 41.4557 154.564 41.1437 154.564C40.6397 154.564 40.2637 154.648 40.0157 154.816C39.7677 154.976 39.6437 155.184 39.6437 155.44C39.6437 155.656 39.7157 155.824 39.8597 155.944C40.0117 156.056 40.2037 156.144 40.4357 156.208C40.6757 156.272 40.9397 156.328 41.2277 156.376C41.5157 156.416 41.8037 156.472 42.0917 156.544C42.3797 156.608 42.6397 156.7 42.8717 156.82C43.1117 156.94 43.3037 157.108 43.4477 157.324C43.5997 157.54 43.6757 157.828 43.6757 158.188C43.6757 158.572 43.5637 158.904 43.3397 159.184C43.1157 159.464 42.7997 159.684 42.3917 159.844C41.9837 159.996 41.4957 160.072 40.9277 160.072ZM47.2994 160.072C46.6594 160.072 46.1634 159.9 45.8114 159.556C45.4594 159.212 45.2834 158.72 45.2834 158.08V152.248H46.4354V158.032C46.4354 158.376 46.5194 158.64 46.6874 158.824C46.8634 159.008 47.1114 159.1 47.4314 159.1C47.7914 159.1 48.0914 159 48.3314 158.8L48.6914 159.628C48.5154 159.78 48.3034 159.892 48.0554 159.964C47.8154 160.036 47.5634 160.072 47.2994 160.072ZM44.2034 154.588V153.64H48.2594V154.588H44.2034ZM52.7602 160.072C52.2162 160.072 51.7362 159.972 51.3202 159.772C50.9122 159.572 50.5922 159.268 50.3602 158.86C50.1362 158.444 50.0242 157.924 50.0242 157.3V153.64H51.1762V157.168C51.1762 157.792 51.3242 158.26 51.6202 158.572C51.9242 158.884 52.3482 159.04 52.8922 159.04C53.2922 159.04 53.6402 158.96 53.9362 158.8C54.2322 158.632 54.4602 158.392 54.6202 158.08C54.7802 157.76 54.8602 157.376 54.8602 156.928V153.64H56.0122V160H54.9202V158.284L55.1002 158.74C54.8922 159.164 54.5802 159.492 54.1642 159.724C53.7482 159.956 53.2802 160.072 52.7602 160.072ZM60.8333 160.072C60.2173 160.072 59.6653 159.936 59.1773 159.664C58.6973 159.392 58.3173 159.012 58.0373 158.524C57.7573 158.036 57.6173 157.468 57.6173 156.82C57.6173 156.172 57.7573 155.608 58.0373 155.128C58.3173 154.64 58.6973 154.26 59.1773 153.988C59.6653 153.716 60.2173 153.58 60.8333 153.58C61.3693 153.58 61.8533 153.7 62.2853 153.94C62.7173 154.18 63.0613 154.54 63.3173 155.02C63.5813 155.5 63.7133 156.1 63.7133 156.82C63.7133 157.54 63.5853 158.14 63.3293 158.62C63.0813 159.1 62.7413 159.464 62.3093 159.712C61.8773 159.952 61.3853 160.072 60.8333 160.072ZM60.9293 159.064C61.3293 159.064 61.6893 158.972 62.0093 158.788C62.3373 158.604 62.5933 158.344 62.7773 158.008C62.9693 157.664 63.0653 157.268 63.0653 156.82C63.0653 156.364 62.9693 155.972 62.7773 155.644C62.5933 155.308 62.3373 155.048 62.0093 154.864C61.6893 154.68 61.3293 154.588 60.9293 154.588C60.5213 154.588 60.1573 154.68 59.8373 154.864C59.5173 155.048 59.2613 155.308 59.0693 155.644C58.8773 155.972 58.7813 156.364 58.7813 156.82C58.7813 157.268 58.8773 157.664 59.0693 158.008C59.2613 158.344 59.5173 158.604 59.8373 158.788C60.1573 158.972 60.5213 159.064 60.9293 159.064ZM63.1013 160V158.284L63.1733 156.808L63.0533 155.332V151.096H64.2053V160H63.1013ZM69.217 160.072C68.537 160.072 67.937 159.932 67.417 159.652C66.905 159.372 66.505 158.988 66.217 158.5C65.937 158.012 65.797 157.452 65.797 156.82C65.797 156.188 65.933 155.628 66.205 155.14C66.485 154.652 66.865 154.272 67.345 154C67.833 153.72 68.381 153.58 68.989 153.58C69.605 153.58 70.149 153.716 70.621 153.988C71.093 154.26 71.461 154.644 71.725 155.14C71.997 155.628 72.133 156.2 72.133 156.856C72.133 156.904 72.129 156.96 72.121 157.024C72.121 157.088 72.117 157.148 72.109 157.204H66.697V156.376H71.509L71.041 156.664C71.049 156.256 70.965 155.892 70.789 155.572C70.613 155.252 70.369 155.004 70.057 154.828C69.753 154.644 69.397 154.552 68.989 154.552C68.589 154.552 68.233 154.644 67.921 154.828C67.609 155.004 67.365 155.256 67.189 155.584C67.013 155.904 66.925 156.272 66.925 156.688V156.88C66.925 157.304 67.021 157.684 67.213 158.02C67.413 158.348 67.689 158.604 68.041 158.788C68.393 158.972 68.797 159.064 69.253 159.064C69.629 159.064 69.969 159 70.273 158.872C70.585 158.744 70.857 158.552 71.089 158.296L71.725 159.04C71.437 159.376 71.077 159.632 70.645 159.808C70.221 159.984 69.745 160.072 69.217 160.072ZM77.1286 153.58C77.6486 153.58 78.1046 153.68 78.4966 153.88C78.8966 154.08 79.2086 154.384 79.4326 154.792C79.6566 155.2 79.7686 155.716 79.7686 156.34V160H78.6166V156.472C78.6166 155.856 78.4646 155.392 78.1606 155.08C77.8646 154.768 77.4446 154.612 76.9006 154.612C76.4926 154.612 76.1366 154.692 75.8326 154.852C75.5286 155.012 75.2926 155.248 75.1246 155.56C74.9646 155.872 74.8846 156.26 74.8846 156.724V160H73.7326V153.64H74.8366V155.356L74.6566 154.9C74.8646 154.484 75.1846 154.16 75.6166 153.928C76.0486 153.696 76.5526 153.58 77.1286 153.58ZM84.0846 160.072C83.4446 160.072 82.9486 159.9 82.5966 159.556C82.2446 159.212 82.0686 158.72 82.0686 158.08V152.248H83.2206V158.032C83.2206 158.376 83.3046 158.64 83.4726 158.824C83.6486 159.008 83.8966 159.1 84.2166 159.1C84.5766 159.1 84.8766 159 85.1166 158.8L85.4766 159.628C85.3006 159.78 85.0886 159.892 84.8406 159.964C84.6006 160.036 84.3486 160.072 84.0846 160.072ZM80.9886 154.588V153.64H85.0446V154.588H80.9886Z" fill="black"/>
<path d="M9.26 191V182.6H10.46V191H9.26ZM12.5428 185.84L12.4708 182.6H13.4788L13.3948 185.84H12.5428ZM23.2824 184.58C23.7944 184.58 24.2464 184.68 24.6384 184.88C25.0304 185.08 25.3344 185.384 25.5504 185.792C25.7744 186.2 25.8864 186.716 25.8864 187.34V191H24.7344V187.472C24.7344 186.856 24.5904 186.392 24.3024 186.08C24.0144 185.768 23.6104 185.612 23.0904 185.612C22.7064 185.612 22.3704 185.692 22.0824 185.852C21.7944 186.012 21.5704 186.248 21.4104 186.56C21.2584 186.872 21.1824 187.26 21.1824 187.724V191H20.0304V187.472C20.0304 186.856 19.8864 186.392 19.5984 186.08C19.3184 185.768 18.9144 185.612 18.3864 185.612C18.0104 185.612 17.6784 185.692 17.3904 185.852C17.1024 186.012 16.8784 186.248 16.7184 186.56C16.5584 186.872 16.4784 187.26 16.4784 187.724V191H15.3264V184.64H16.4304V186.332L16.2504 185.9C16.4504 185.484 16.7584 185.16 17.1744 184.928C17.5904 184.696 18.0744 184.58 18.6264 184.58C19.2344 184.58 19.7584 184.732 20.1984 185.036C20.6384 185.332 20.9264 185.784 21.0624 186.392L20.5944 186.2C20.7864 185.712 21.1224 185.32 21.6024 185.024C22.0824 184.728 22.6424 184.58 23.2824 184.58ZM31.3967 191V184.076C31.3967 183.452 31.5767 182.956 31.9367 182.588C32.3047 182.212 32.8247 182.024 33.4967 182.024C33.7447 182.024 33.9807 182.056 34.2047 182.12C34.4367 182.176 34.6327 182.268 34.7927 182.396L34.4447 183.272C34.3247 183.176 34.1887 183.104 34.0367 183.056C33.8847 183 33.7247 182.972 33.5567 182.972C33.2207 182.972 32.9647 183.068 32.7887 183.26C32.6127 183.444 32.5247 183.72 32.5247 184.088V184.94L32.5487 185.468V191H31.3967ZM30.3167 185.588V184.64H34.3727V185.588H30.3167ZM35.4592 191V184.64H36.5632V186.368L36.4552 185.936C36.6312 185.496 36.9272 185.16 37.3432 184.928C37.7592 184.696 38.2712 184.58 38.8792 184.58V185.696C38.8312 185.688 38.7832 185.684 38.7352 185.684C38.6952 185.684 38.6552 185.684 38.6152 185.684C37.9992 185.684 37.5112 185.868 37.1512 186.236C36.7912 186.604 36.6112 187.136 36.6112 187.832V191H35.4592ZM42.9644 191.072C42.3244 191.072 41.7564 190.932 41.2604 190.652C40.7644 190.372 40.3724 189.988 40.0844 189.5C39.7964 189.004 39.6524 188.444 39.6524 187.82C39.6524 187.188 39.7964 186.628 40.0844 186.14C40.3724 185.652 40.7644 185.272 41.2604 185C41.7564 184.72 42.3244 184.58 42.9644 184.58C43.5964 184.58 44.1604 184.72 44.6564 185C45.1604 185.272 45.5524 185.652 45.8324 186.14C46.1204 186.62 46.2644 187.18 46.2644 187.82C46.2644 188.452 46.1204 189.012 45.8324 189.5C45.5524 189.988 45.1604 190.372 44.6564 190.652C44.1604 190.932 43.5964 191.072 42.9644 191.072ZM42.9644 190.064C43.3724 190.064 43.7364 189.972 44.0564 189.788C44.3844 189.604 44.6404 189.344 44.8244 189.008C45.0084 188.664 45.1004 188.268 45.1004 187.82C45.1004 187.364 45.0084 186.972 44.8244 186.644C44.6404 186.308 44.3844 186.048 44.0564 185.864C43.7364 185.68 43.3724 185.588 42.9644 185.588C42.5564 185.588 42.1924 185.68 41.8724 185.864C41.5524 186.048 41.2964 186.308 41.1044 186.644C40.9124 186.972 40.8164 187.364 40.8164 187.82C40.8164 188.268 40.9124 188.664 41.1044 189.008C41.2964 189.344 41.5524 189.604 41.8724 189.788C42.1924 189.972 42.5564 190.064 42.9644 190.064ZM55.8136 184.58C56.3256 184.58 56.7776 184.68 57.1696 184.88C57.5616 185.08 57.8656 185.384 58.0816 185.792C58.3056 186.2 58.4176 186.716 58.4176 187.34V191H57.2656V187.472C57.2656 186.856 57.1216 186.392 56.8336 186.08C56.5456 185.768 56.1416 185.612 55.6216 185.612C55.2376 185.612 54.9016 185.692 54.6136 185.852C54.3256 186.012 54.1016 186.248 53.9416 186.56C53.7896 186.872 53.7136 187.26 53.7136 187.724V191H52.5616V187.472C52.5616 186.856 52.4176 186.392 52.1296 186.08C51.8496 185.768 51.4456 185.612 50.9176 185.612C50.5416 185.612 50.2096 185.692 49.9216 185.852C49.6336 186.012 49.4096 186.248 49.2496 186.56C49.0896 186.872 49.0096 187.26 49.0096 187.724V191H47.8576V184.64H48.9616V186.332L48.7816 185.9C48.9816 185.484 49.2896 185.16 49.7056 184.928C50.1216 184.696 50.6056 184.58 51.1576 184.58C51.7656 184.58 52.2896 184.732 52.7296 185.036C53.1696 185.332 53.4576 185.784 53.5936 186.392L53.1256 186.2C53.3176 185.712 53.6536 185.32 54.1336 185.024C54.6136 184.728 55.1736 184.58 55.8136 184.58ZM64.984 188.972L64.924 187.508L69.688 182.6H71.056L67.372 186.488L66.7 187.232L64.984 188.972ZM63.928 191V182.6H65.128V191H63.928ZM69.88 191L66.436 186.992L67.24 186.104L71.284 191H69.88ZM72.2157 193.4C71.9117 193.4 71.6157 193.348 71.3277 193.244C71.0397 193.148 70.7917 193.004 70.5837 192.812L71.0757 191.948C71.2357 192.1 71.4117 192.216 71.6037 192.296C71.7957 192.376 71.9997 192.416 72.2157 192.416C72.4957 192.416 72.7277 192.344 72.9117 192.2C73.0957 192.056 73.2677 191.8 73.4277 191.432L73.8237 190.556L73.9437 190.412L76.4397 184.64H77.5677L74.4837 191.636C74.2997 192.084 74.0917 192.436 73.8597 192.692C73.6357 192.948 73.3877 193.128 73.1157 193.232C72.8437 193.344 72.5437 193.4 72.2157 193.4ZM73.7277 191.204L70.8237 184.64H72.0237L74.4957 190.304L73.7277 191.204ZM78.6428 191V184.64H79.7468V186.368L79.6388 185.936C79.8148 185.496 80.1108 185.16 80.5268 184.928C80.9428 184.696 81.4548 184.58 82.0628 184.58V185.696C82.0148 185.688 81.9668 185.684 81.9188 185.684C81.8788 185.684 81.8388 185.684 81.7988 185.684C81.1828 185.684 80.6948 185.868 80.3348 186.236C79.9748 186.604 79.7948 187.136 79.7948 187.832V191H78.6428ZM86.208 193.4C85.624 193.4 85.056 193.316 84.504 193.148C83.96 192.988 83.516 192.756 83.172 192.452L83.724 191.564C84.02 191.82 84.384 192.02 84.816 192.164C85.248 192.316 85.7 192.392 86.172 192.392C86.924 192.392 87.476 192.216 87.828 191.864C88.18 191.512 88.356 190.976 88.356 190.256V188.912L88.476 187.652L88.416 186.38V184.64H89.508V190.136C89.508 191.256 89.228 192.08 88.668 192.608C88.108 193.136 87.288 193.4 86.208 193.4ZM86.064 190.736C85.448 190.736 84.896 190.608 84.408 190.352C83.928 190.088 83.544 189.724 83.256 189.26C82.976 188.796 82.836 188.26 82.836 187.652C82.836 187.036 82.976 186.5 83.256 186.044C83.544 185.58 83.928 185.22 84.408 184.964C84.896 184.708 85.448 184.58 86.064 184.58C86.608 184.58 87.104 184.692 87.552 184.916C88 185.132 88.356 185.468 88.62 185.924C88.892 186.38 89.028 186.956 89.028 187.652C89.028 188.34 88.892 188.912 88.62 189.368C88.356 189.824 88 190.168 87.552 190.4C87.104 190.624 86.608 190.736 86.064 190.736ZM86.196 189.728C86.62 189.728 86.996 189.64 87.324 189.464C87.652 189.288 87.908 189.044 88.092 188.732C88.284 188.42 88.38 188.06 88.38 187.652C88.38 187.244 88.284 186.884 88.092 186.572C87.908 186.26 87.652 186.02 87.324 185.852C86.996 185.676 86.62 185.588 86.196 185.588C85.772 185.588 85.392 185.676 85.056 185.852C84.728 186.02 84.468 186.26 84.276 186.572C84.092 186.884 84 187.244 84 187.652C84 188.06 84.092 188.42 84.276 188.732C84.468 189.044 84.728 189.288 85.056 189.464C85.392 189.64 85.772 189.728 86.196 189.728ZM91.9852 193.4C91.6812 193.4 91.3852 193.348 91.0972 193.244C90.8092 193.148 90.5612 193.004 90.3532 192.812L90.8452 191.948C91.0052 192.1 91.1812 192.216 91.3732 192.296C91.5652 192.376 91.7692 192.416 91.9852 192.416C92.2652 192.416 92.4972 192.344 92.6812 192.2C92.8652 192.056 93.0372 191.8 93.1972 191.432L93.5932 190.556L93.7132 190.412L96.2092 184.64H97.3372L94.2532 191.636C94.0692 192.084 93.8612 192.436 93.6292 192.692C93.4052 192.948 93.1572 193.128 92.8852 193.232C92.6132 193.344 92.3132 193.4 91.9852 193.4ZM93.4972 191.204L90.5932 184.64H91.7932L94.2652 190.304L93.4972 191.204ZM97.6831 191V190.256L101.763 185.192L101.991 185.588H97.7551V184.64H102.915V185.396L98.8351 190.448L98.5711 190.052H103.011V191H97.6831ZM106.377 191.072C105.849 191.072 105.345 191 104.865 190.856C104.393 190.712 104.021 190.536 103.749 190.328L104.229 189.416C104.501 189.6 104.837 189.756 105.237 189.884C105.637 190.012 106.045 190.076 106.461 190.076C106.997 190.076 107.381 190 107.613 189.848C107.853 189.696 107.973 189.484 107.973 189.212C107.973 189.012 107.901 188.856 107.757 188.744C107.613 188.632 107.421 188.548 107.181 188.492C106.949 188.436 106.689 188.388 106.401 188.348C106.113 188.3 105.825 188.244 105.537 188.18C105.249 188.108 104.985 188.012 104.745 187.892C104.505 187.764 104.313 187.592 104.169 187.376C104.025 187.152 103.953 186.856 103.953 186.488C103.953 186.104 104.061 185.768 104.277 185.48C104.493 185.192 104.797 184.972 105.189 184.82C105.589 184.66 106.061 184.58 106.605 184.58C107.021 184.58 107.441 184.632 107.865 184.736C108.297 184.832 108.649 184.972 108.921 185.156L108.429 186.068C108.141 185.876 107.841 185.744 107.529 185.672C107.217 185.6 106.905 185.564 106.593 185.564C106.089 185.564 105.713 185.648 105.465 185.816C105.217 185.976 105.093 186.184 105.093 186.44C105.093 186.656 105.165 186.824 105.309 186.944C105.461 187.056 105.653 187.144 105.885 187.208C106.125 187.272 106.389 187.328 106.677 187.376C106.965 187.416 107.253 187.472 107.541 187.544C107.829 187.608 108.089 187.7 108.321 187.82C108.561 187.94 108.753 188.108 108.897 188.324C109.049 188.54 109.125 188.828 109.125 189.188C109.125 189.572 109.013 189.904 108.789 190.184C108.565 190.464 108.249 190.684 107.841 190.844C107.433 190.996 106.945 191.072 106.377 191.072ZM112.749 191.072C112.109 191.072 111.613 190.9 111.261 190.556C110.909 190.212 110.733 189.72 110.733 189.08V183.248H111.885V189.032C111.885 189.376 111.969 189.64 112.137 189.824C112.313 190.008 112.561 190.1 112.881 190.1C113.241 190.1 113.541 190 113.781 189.8L114.141 190.628C113.965 190.78 113.753 190.892 113.505 190.964C113.265 191.036 113.013 191.072 112.749 191.072ZM109.653 185.588V184.64H113.709V185.588H109.653ZM119.481 191V189.656L119.421 189.404V187.112C119.421 186.624 119.277 186.248 118.989 185.984C118.709 185.712 118.285 185.576 117.717 185.576C117.341 185.576 116.973 185.64 116.613 185.768C116.253 185.888 115.949 186.052 115.701 186.26L115.221 185.396C115.549 185.132 115.941 184.932 116.397 184.796C116.861 184.652 117.345 184.58 117.849 184.58C118.721 184.58 119.393 184.792 119.865 185.216C120.337 185.64 120.573 186.288 120.573 187.16V191H119.481ZM117.393 191.072C116.921 191.072 116.505 190.992 116.145 190.832C115.793 190.672 115.521 190.452 115.329 190.172C115.137 189.884 115.041 189.56 115.041 189.2C115.041 188.856 115.121 188.544 115.281 188.264C115.449 187.984 115.717 187.76 116.085 187.592C116.461 187.424 116.965 187.34 117.597 187.34H119.613V188.168H117.645C117.069 188.168 116.681 188.264 116.481 188.456C116.281 188.648 116.181 188.88 116.181 189.152C116.181 189.464 116.305 189.716 116.553 189.908C116.801 190.092 117.145 190.184 117.585 190.184C118.017 190.184 118.393 190.088 118.713 189.896C119.041 189.704 119.277 189.424 119.421 189.056L119.649 189.848C119.497 190.224 119.229 190.524 118.845 190.748C118.461 190.964 117.977 191.072 117.393 191.072ZM126.101 184.58C126.621 184.58 127.077 184.68 127.469 184.88C127.869 185.08 128.181 185.384 128.405 185.792C128.629 186.2 128.741 186.716 128.741 187.34V191H127.589V187.472C127.589 186.856 127.437 186.392 127.133 186.08C126.837 185.768 126.417 185.612 125.873 185.612C125.465 185.612 125.109 185.692 124.805 185.852C124.501 186.012 124.265 186.248 124.097 186.56C123.937 186.872 123.857 187.26 123.857 187.724V191H122.705V184.64H123.809V186.356L123.629 185.9C123.837 185.484 124.157 185.16 124.589 184.928C125.021 184.696 125.525 184.58 126.101 184.58Z" fill="black"/>
<mask id="path-21-inside-6_420_601" fill="white">
<path d="M160 138H320V204H160V138Z"/>
</mask>
<path d="M320 204V205H321V204H320ZM160 204H159V205H160V204ZM319 138V204H321V138H319ZM320 203H160V205H320V203ZM161 204V138H159V204H161Z" fill="#8D47F3" mask="url(#path-21-inside-6_420_601)"/>
<path d="M171.288 160V156.784L171.564 157.528L167.952 151.6H169.236L172.272 156.604H171.576L174.624 151.6H175.812L172.212 157.528L172.476 156.784V160H171.288ZM178.871 160.072C178.231 160.072 177.663 159.932 177.167 159.652C176.671 159.372 176.279 158.988 175.991 158.5C175.703 158.004 175.559 157.444 175.559 156.82C175.559 156.188 175.703 155.628 175.991 155.14C176.279 154.652 176.671 154.272 177.167 154C177.663 153.72 178.231 153.58 178.871 153.58C179.503 153.58 180.067 153.72 180.563 154C181.067 154.272 181.459 154.652 181.739 155.14C182.027 155.62 182.171 156.18 182.171 156.82C182.171 157.452 182.027 158.012 181.739 158.5C181.459 158.988 181.067 159.372 180.563 159.652C180.067 159.932 179.503 160.072 178.871 160.072ZM178.871 159.064C179.279 159.064 179.643 158.972 179.963 158.788C180.291 158.604 180.547 158.344 180.731 158.008C180.915 157.664 181.007 157.268 181.007 156.82C181.007 156.364 180.915 155.972 180.731 155.644C180.547 155.308 180.291 155.048 179.963 154.864C179.643 154.68 179.279 154.588 178.871 154.588C178.463 154.588 178.099 154.68 177.779 154.864C177.459 155.048 177.203 155.308 177.011 155.644C176.819 155.972 176.723 156.364 176.723 156.82C176.723 157.268 176.819 157.664 177.011 158.008C177.203 158.344 177.459 158.604 177.779 158.788C178.099 158.972 178.463 159.064 178.871 159.064ZM186.44 160.072C185.896 160.072 185.416 159.972 185 159.772C184.592 159.572 184.272 159.268 184.04 158.86C183.816 158.444 183.704 157.924 183.704 157.3V153.64H184.856V157.168C184.856 157.792 185.004 158.26 185.3 158.572C185.604 158.884 186.028 159.04 186.572 159.04C186.972 159.04 187.32 158.96 187.616 158.8C187.912 158.632 188.14 158.392 188.3 158.08C188.46 157.76 188.54 157.376 188.54 156.928V153.64H189.692V160H188.6V158.284L188.78 158.74C188.572 159.164 188.26 159.492 187.844 159.724C187.428 159.956 186.96 160.072 186.44 160.072ZM199.056 160V158.656L198.996 158.404V156.112C198.996 155.624 198.852 155.248 198.564 154.984C198.284 154.712 197.86 154.576 197.292 154.576C196.916 154.576 196.548 154.64 196.188 154.768C195.828 154.888 195.524 155.052 195.276 155.26L194.796 154.396C195.124 154.132 195.516 153.932 195.972 153.796C196.436 153.652 196.92 153.58 197.424 153.58C198.296 153.58 198.968 153.792 199.44 154.216C199.912 154.64 200.148 155.288 200.148 156.16V160H199.056ZM196.968 160.072C196.496 160.072 196.08 159.992 195.72 159.832C195.368 159.672 195.096 159.452 194.904 159.172C194.712 158.884 194.616 158.56 194.616 158.2C194.616 157.856 194.696 157.544 194.856 157.264C195.024 156.984 195.292 156.76 195.66 156.592C196.036 156.424 196.54 156.34 197.172 156.34H199.188V157.168H197.22C196.644 157.168 196.256 157.264 196.056 157.456C195.856 157.648 195.756 157.88 195.756 158.152C195.756 158.464 195.88 158.716 196.128 158.908C196.376 159.092 196.72 159.184 197.16 159.184C197.592 159.184 197.968 159.088 198.288 158.896C198.616 158.704 198.852 158.424 198.996 158.056L199.224 158.848C199.072 159.224 198.804 159.524 198.42 159.748C198.036 159.964 197.552 160.072 196.968 160.072ZM202.28 160V153.64H203.384V155.368L203.276 154.936C203.452 154.496 203.748 154.16 204.164 153.928C204.58 153.696 205.092 153.58 205.7 153.58V154.696C205.652 154.688 205.604 154.684 205.556 154.684C205.516 154.684 205.476 154.684 205.436 154.684C204.82 154.684 204.332 154.868 203.972 155.236C203.612 155.604 203.432 156.136 203.432 156.832V160H202.28ZM209.893 160.072C209.213 160.072 208.613 159.932 208.093 159.652C207.581 159.372 207.181 158.988 206.893 158.5C206.613 158.012 206.473 157.452 206.473 156.82C206.473 156.188 206.609 155.628 206.881 155.14C207.161 154.652 207.541 154.272 208.021 154C208.509 153.72 209.057 153.58 209.665 153.58C210.281 153.58 210.825 153.716 211.297 153.988C211.769 154.26 212.137 154.644 212.401 155.14C212.673 155.628 212.809 156.2 212.809 156.856C212.809 156.904 212.805 156.96 212.797 157.024C212.797 157.088 212.793 157.148 212.785 157.204H207.373V156.376H212.185L211.717 156.664C211.725 156.256 211.641 155.892 211.465 155.572C211.289 155.252 211.045 155.004 210.733 154.828C210.429 154.644 210.073 154.552 209.665 154.552C209.265 154.552 208.909 154.644 208.597 154.828C208.285 155.004 208.041 155.256 207.865 155.584C207.689 155.904 207.601 156.272 207.601 156.688V156.88C207.601 157.304 207.697 157.684 207.889 158.02C208.089 158.348 208.365 158.604 208.717 158.788C209.069 158.972 209.473 159.064 209.929 159.064C210.305 159.064 210.645 159 210.949 158.872C211.261 158.744 211.533 158.552 211.765 158.296L212.401 159.04C212.113 159.376 211.753 159.632 211.321 159.808C210.897 159.984 210.421 160.072 209.893 160.072ZM219.455 160.072C218.927 160.072 218.423 160 217.943 159.856C217.471 159.712 217.099 159.536 216.827 159.328L217.307 158.416C217.579 158.6 217.915 158.756 218.315 158.884C218.715 159.012 219.123 159.076 219.539 159.076C220.075 159.076 220.459 159 220.691 158.848C220.931 158.696 221.051 158.484 221.051 158.212C221.051 158.012 220.979 157.856 220.835 157.744C220.691 157.632 220.499 157.548 220.259 157.492C220.027 157.436 219.767 157.388 219.479 157.348C219.191 157.3 218.903 157.244 218.615 157.18C218.327 157.108 218.063 157.012 217.823 156.892C217.583 156.764 217.391 156.592 217.247 156.376C217.103 156.152 217.031 155.856 217.031 155.488C217.031 155.104 217.139 154.768 217.355 154.48C217.571 154.192 217.875 153.972 218.267 153.82C218.667 153.66 219.139 153.58 219.683 153.58C220.099 153.58 220.519 153.632 220.943 153.736C221.375 153.832 221.727 153.972 221.999 154.156L221.507 155.068C221.219 154.876 220.919 154.744 220.607 154.672C220.295 154.6 219.983 154.564 219.671 154.564C219.167 154.564 218.791 154.648 218.543 154.816C218.295 154.976 218.171 155.184 218.171 155.44C218.171 155.656 218.243 155.824 218.387 155.944C218.539 156.056 218.731 156.144 218.963 156.208C219.203 156.272 219.467 156.328 219.755 156.376C220.043 156.416 220.331 156.472 220.619 156.544C220.907 156.608 221.167 156.7 221.399 156.82C221.639 156.94 221.831 157.108 221.975 157.324C222.127 157.54 222.203 157.828 222.203 158.188C222.203 158.572 222.091 158.904 221.867 159.184C221.643 159.464 221.327 159.684 220.919 159.844C220.511 159.996 220.023 160.072 219.455 160.072ZM225.827 160.072C225.187 160.072 224.691 159.9 224.339 159.556C223.987 159.212 223.811 158.72 223.811 158.08V152.248H224.963V158.032C224.963 158.376 225.047 158.64 225.215 158.824C225.391 159.008 225.639 159.1 225.959 159.1C226.319 159.1 226.619 159 226.859 158.8L227.219 159.628C227.043 159.78 226.831 159.892 226.583 159.964C226.343 160.036 226.091 160.072 225.827 160.072ZM222.731 154.588V153.64H226.787V154.588H222.731ZM231.288 160.072C230.744 160.072 230.264 159.972 229.848 159.772C229.44 159.572 229.12 159.268 228.888 158.86C228.664 158.444 228.552 157.924 228.552 157.3V153.64H229.704V157.168C229.704 157.792 229.852 158.26 230.148 158.572C230.452 158.884 230.876 159.04 231.42 159.04C231.82 159.04 232.168 158.96 232.464 158.8C232.76 158.632 232.988 158.392 233.148 158.08C233.308 157.76 233.388 157.376 233.388 156.928V153.64H234.54V160H233.448V158.284L233.628 158.74C233.42 159.164 233.108 159.492 232.692 159.724C232.276 159.956 231.808 160.072 231.288 160.072ZM239.361 160.072C238.745 160.072 238.193 159.936 237.705 159.664C237.225 159.392 236.845 159.012 236.565 158.524C236.285 158.036 236.145 157.468 236.145 156.82C236.145 156.172 236.285 155.608 236.565 155.128C236.845 154.64 237.225 154.26 237.705 153.988C238.193 153.716 238.745 153.58 239.361 153.58C239.897 153.58 240.381 153.7 240.813 153.94C241.245 154.18 241.589 154.54 241.845 155.02C242.109 155.5 242.241 156.1 242.241 156.82C242.241 157.54 242.113 158.14 241.857 158.62C241.609 159.1 241.269 159.464 240.837 159.712C240.405 159.952 239.913 160.072 239.361 160.072ZM239.457 159.064C239.857 159.064 240.217 158.972 240.537 158.788C240.865 158.604 241.121 158.344 241.305 158.008C241.497 157.664 241.593 157.268 241.593 156.82C241.593 156.364 241.497 155.972 241.305 155.644C241.121 155.308 240.865 155.048 240.537 154.864C240.217 154.68 239.857 154.588 239.457 154.588C239.049 154.588 238.685 154.68 238.365 154.864C238.045 155.048 237.789 155.308 237.597 155.644C237.405 155.972 237.309 156.364 237.309 156.82C237.309 157.268 237.405 157.664 237.597 158.008C237.789 158.344 238.045 158.604 238.365 158.788C238.685 158.972 239.049 159.064 239.457 159.064ZM241.629 160V158.284L241.701 156.808L241.581 155.332V151.096H242.733V160H241.629ZM247.744 160.072C247.064 160.072 246.464 159.932 245.944 159.652C245.432 159.372 245.032 158.988 244.744 158.5C244.464 158.012 244.324 157.452 244.324 156.82C244.324 156.188 244.46 155.628 244.732 155.14C245.012 154.652 245.392 154.272 245.872 154C246.36 153.72 246.908 153.58 247.516 153.58C248.132 153.58 248.676 153.716 249.148 153.988C249.62 154.26 249.988 154.644 250.252 155.14C250.524 155.628 250.66 156.2 250.66 156.856C250.66 156.904 250.656 156.96 250.648 157.024C250.648 157.088 250.644 157.148 250.636 157.204H245.224V156.376H250.036L249.568 156.664C249.576 156.256 249.492 155.892 249.316 155.572C249.14 155.252 248.896 155.004 248.584 154.828C248.28 154.644 247.924 154.552 247.516 154.552C247.116 154.552 246.76 154.644 246.448 154.828C246.136 155.004 245.892 155.256 245.716 155.584C245.54 155.904 245.452 156.272 245.452 156.688V156.88C245.452 157.304 245.548 157.684 245.74 158.02C245.94 158.348 246.216 158.604 246.568 158.788C246.92 158.972 247.324 159.064 247.78 159.064C248.156 159.064 248.496 159 248.8 158.872C249.112 158.744 249.384 158.552 249.616 158.296L250.252 159.04C249.964 159.376 249.604 159.632 249.172 159.808C248.748 159.984 248.272 160.072 247.744 160.072ZM255.656 153.58C256.176 153.58 256.632 153.68 257.024 153.88C257.424 154.08 257.736 154.384 257.96 154.792C258.184 155.2 258.296 155.716 258.296 156.34V160H257.144V156.472C257.144 155.856 256.992 155.392 256.688 155.08C256.392 154.768 255.972 154.612 255.428 154.612C255.02 154.612 254.664 154.692 254.36 154.852C254.056 155.012 253.82 155.248 253.652 155.56C253.492 155.872 253.412 156.26 253.412 156.724V160H252.26V153.64H253.364V155.356L253.184 154.9C253.392 154.484 253.712 154.16 254.144 153.928C254.576 153.696 255.08 153.58 255.656 153.58ZM262.612 160.072C261.972 160.072 261.476 159.9 261.124 159.556C260.772 159.212 260.596 158.72 260.596 158.08V152.248H261.748V158.032C261.748 158.376 261.832 158.64 262 158.824C262.176 159.008 262.424 159.1 262.744 159.1C263.104 159.1 263.404 159 263.644 158.8L264.004 159.628C263.828 159.78 263.616 159.892 263.368 159.964C263.128 160.036 262.876 160.072 262.612 160.072ZM259.516 154.588V153.64H263.572V154.588H259.516Z" fill="black"/>
<path d="M171.288 191V187.784L171.564 188.528L167.952 182.6H169.236L172.272 187.604H171.576L174.624 182.6H175.812L172.212 188.528L172.476 187.784V191H171.288ZM178.871 191.072C178.231 191.072 177.663 190.932 177.167 190.652C176.671 190.372 176.279 189.988 175.991 189.5C175.703 189.004 175.559 188.444 175.559 187.82C175.559 187.188 175.703 186.628 175.991 186.14C176.279 185.652 176.671 185.272 177.167 185C177.663 184.72 178.231 184.58 178.871 184.58C179.503 184.58 180.067 184.72 180.563 185C181.067 185.272 181.459 185.652 181.739 186.14C182.027 186.62 182.171 187.18 182.171 187.82C182.171 188.452 182.027 189.012 181.739 189.5C181.459 189.988 181.067 190.372 180.563 190.652C180.067 190.932 179.503 191.072 178.871 191.072ZM178.871 190.064C179.279 190.064 179.643 189.972 179.963 189.788C180.291 189.604 180.547 189.344 180.731 189.008C180.915 188.664 181.007 188.268 181.007 187.82C181.007 187.364 180.915 186.972 180.731 186.644C180.547 186.308 180.291 186.048 179.963 185.864C179.643 185.68 179.279 185.588 178.871 185.588C178.463 185.588 178.099 185.68 177.779 185.864C177.459 186.048 177.203 186.308 177.011 186.644C176.819 186.972 176.723 187.364 176.723 187.82C176.723 188.268 176.819 188.664 177.011 189.008C177.203 189.344 177.459 189.604 177.779 189.788C178.099 189.972 178.463 190.064 178.871 190.064ZM186.44 191.072C185.896 191.072 185.416 190.972 185 190.772C184.592 190.572 184.272 190.268 184.04 189.86C183.816 189.444 183.704 188.924 183.704 188.3V184.64H184.856V188.168C184.856 188.792 185.004 189.26 185.3 189.572C185.604 189.884 186.028 190.04 186.572 190.04C186.972 190.04 187.32 189.96 187.616 189.8C187.912 189.632 188.14 189.392 188.3 189.08C188.46 188.76 188.54 188.376 188.54 187.928V184.64H189.692V191H188.6V189.284L188.78 189.74C188.572 190.164 188.26 190.492 187.844 190.724C187.428 190.956 186.96 191.072 186.44 191.072ZM191.621 185.84L191.549 182.6H192.557L192.473 185.84H191.621ZM194.405 191V184.64H195.509V186.368L195.401 185.936C195.577 185.496 195.873 185.16 196.289 184.928C196.705 184.696 197.217 184.58 197.825 184.58V185.696C197.777 185.688 197.729 185.684 197.681 185.684C197.641 185.684 197.601 185.684 197.561 185.684C196.945 185.684 196.457 185.868 196.097 186.236C195.737 186.604 195.557 187.136 195.557 187.832V191H194.405ZM202.018 191.072C201.338 191.072 200.738 190.932 200.218 190.652C199.706 190.372 199.306 189.988 199.018 189.5C198.738 189.012 198.598 188.452 198.598 187.82C198.598 187.188 198.734 186.628 199.006 186.14C199.286 185.652 199.666 185.272 200.146 185C200.634 184.72 201.182 184.58 201.79 184.58C202.406 184.58 202.95 184.716 203.422 184.988C203.894 185.26 204.262 185.644 204.526 186.14C204.798 186.628 204.934 187.2 204.934 187.856C204.934 187.904 204.93 187.96 204.922 188.024C204.922 188.088 204.918 188.148 204.91 188.204H199.498V187.376H204.31L203.842 187.664C203.85 187.256 203.766 186.892 203.59 186.572C203.414 186.252 203.17 186.004 202.858 185.828C202.554 185.644 202.198 185.552 201.79 185.552C201.39 185.552 201.034 185.644 200.722 185.828C200.41 186.004 200.166 186.256 199.99 186.584C199.814 186.904 199.726 187.272 199.726 187.688V187.88C199.726 188.304 199.822 188.684 200.014 189.02C200.214 189.348 200.49 189.604 200.842 189.788C201.194 189.972 201.598 190.064 202.054 190.064C202.43 190.064 202.77 190 203.074 189.872C203.386 189.744 203.658 189.552 203.89 189.296L204.526 190.04C204.238 190.376 203.878 190.632 203.446 190.808C203.022 190.984 202.546 191.072 202.018 191.072ZM209.924 191V184.076C209.924 183.452 210.104 182.956 210.464 182.588C210.832 182.212 211.352 182.024 212.024 182.024C212.272 182.024 212.508 182.056 212.732 182.12C212.964 182.176 213.16 182.268 213.32 182.396L212.972 183.272C212.852 183.176 212.716 183.104 212.564 183.056C212.412 183 212.252 182.972 212.084 182.972C211.748 182.972 211.492 183.068 211.316 183.26C211.14 183.444 211.052 183.72 211.052 184.088V184.94L211.076 185.468V191H209.924ZM208.844 185.588V184.64H212.9V185.588H208.844ZM213.987 191V184.64H215.091V186.368L214.983 185.936C215.159 185.496 215.455 185.16 215.871 184.928C216.287 184.696 216.799 184.58 217.407 184.58V185.696C217.359 185.688 217.311 185.684 217.263 185.684C217.223 185.684 217.183 185.684 217.143 185.684C216.527 185.684 216.039 185.868 215.679 186.236C215.319 186.604 215.139 187.136 215.139 187.832V191H213.987ZM221.492 191.072C220.852 191.072 220.284 190.932 219.788 190.652C219.292 190.372 218.9 189.988 218.612 189.5C218.324 189.004 218.18 188.444 218.18 187.82C218.18 187.188 218.324 186.628 218.612 186.14C218.9 185.652 219.292 185.272 219.788 185C220.284 184.72 220.852 184.58 221.492 184.58C222.124 184.58 222.688 184.72 223.184 185C223.688 185.272 224.08 185.652 224.36 186.14C224.648 186.62 224.792 187.18 224.792 187.82C224.792 188.452 224.648 189.012 224.36 189.5C224.08 189.988 223.688 190.372 223.184 190.652C222.688 190.932 222.124 191.072 221.492 191.072ZM221.492 190.064C221.9 190.064 222.264 189.972 222.584 189.788C222.912 189.604 223.168 189.344 223.352 189.008C223.536 188.664 223.628 188.268 223.628 187.82C223.628 187.364 223.536 186.972 223.352 186.644C223.168 186.308 222.912 186.048 222.584 185.864C222.264 185.68 221.9 185.588 221.492 185.588C221.084 185.588 220.72 185.68 220.4 185.864C220.08 186.048 219.824 186.308 219.632 186.644C219.44 186.972 219.344 187.364 219.344 187.82C219.344 188.268 219.44 188.664 219.632 189.008C219.824 189.344 220.08 189.604 220.4 189.788C220.72 189.972 221.084 190.064 221.492 190.064ZM234.341 184.58C234.853 184.58 235.305 184.68 235.697 184.88C236.089 185.08 236.393 185.384 236.609 185.792C236.833 186.2 236.945 186.716 236.945 187.34V191H235.793V187.472C235.793 186.856 235.649 186.392 235.361 186.08C235.073 185.768 234.669 185.612 234.149 185.612C233.765 185.612 233.429 185.692 233.141 185.852C232.853 186.012 232.629 186.248 232.469 186.56C232.317 186.872 232.241 187.26 232.241 187.724V191H231.089V187.472C231.089 186.856 230.945 186.392 230.657 186.08C230.377 185.768 229.973 185.612 229.445 185.612C229.069 185.612 228.737 185.692 228.449 185.852C228.161 186.012 227.937 186.248 227.777 186.56C227.617 186.872 227.537 187.26 227.537 187.724V191H226.385V184.64H227.489V186.332L227.309 185.9C227.509 185.484 227.817 185.16 228.233 184.928C228.649 184.696 229.133 184.58 229.685 184.58C230.293 184.58 230.817 184.732 231.257 185.036C231.697 185.332 231.985 185.784 232.121 186.392L231.653 186.2C231.845 185.712 232.181 185.32 232.661 185.024C233.141 184.728 233.701 184.58 234.341 184.58ZM243.511 188.972L243.451 187.508L248.215 182.6H249.583L245.899 186.488L245.227 187.232L243.511 188.972ZM242.455 191V182.6H243.655V191H242.455ZM248.407 191L244.963 186.992L245.767 186.104L249.811 191H248.407ZM250.743 193.4C250.439 193.4 250.143 193.348 249.855 193.244C249.567 193.148 249.319 193.004 249.111 192.812L249.603 191.948C249.763 192.1 249.939 192.216 250.131 192.296C250.323 192.376 250.527 192.416 250.743 192.416C251.023 192.416 251.255 192.344 251.439 192.2C251.623 192.056 251.795 191.8 251.955 191.432L252.351 190.556L252.471 190.412L254.967 184.64H256.095L253.011 191.636C252.827 192.084 252.619 192.436 252.387 192.692C252.163 192.948 251.915 193.128 251.643 193.232C251.371 193.344 251.071 193.4 250.743 193.4ZM252.255 191.204L249.351 184.64H250.551L253.023 190.304L252.255 191.204ZM257.17 191V184.64H258.274V186.368L258.166 185.936C258.342 185.496 258.638 185.16 259.054 184.928C259.47 184.696 259.982 184.58 260.59 184.58V185.696C260.542 185.688 260.494 185.684 260.446 185.684C260.406 185.684 260.366 185.684 260.326 185.684C259.71 185.684 259.222 185.868 258.862 186.236C258.502 186.604 258.322 187.136 258.322 187.832V191H257.17ZM264.735 193.4C264.151 193.4 263.583 193.316 263.031 193.148C262.487 192.988 262.043 192.756 261.699 192.452L262.251 191.564C262.547 191.82 262.911 192.02 263.343 192.164C263.775 192.316 264.227 192.392 264.699 192.392C265.451 192.392 266.003 192.216 266.355 191.864C266.707 191.512 266.883 190.976 266.883 190.256V188.912L267.003 187.652L266.943 186.38V184.64H268.035V190.136C268.035 191.256 267.755 192.08 267.195 192.608C266.635 193.136 265.815 193.4 264.735 193.4ZM264.591 190.736C263.975 190.736 263.423 190.608 262.935 190.352C262.455 190.088 262.071 189.724 261.783 189.26C261.503 188.796 261.363 188.26 261.363 187.652C261.363 187.036 261.503 186.5 261.783 186.044C262.071 185.58 262.455 185.22 262.935 184.964C263.423 184.708 263.975 184.58 264.591 184.58C265.135 184.58 265.631 184.692 266.079 184.916C266.527 185.132 266.883 185.468 267.147 185.924C267.419 186.38 267.555 186.956 267.555 187.652C267.555 188.34 267.419 188.912 267.147 189.368C266.883 189.824 266.527 190.168 266.079 190.4C265.631 190.624 265.135 190.736 264.591 190.736ZM264.723 189.728C265.147 189.728 265.523 189.64 265.851 189.464C266.179 189.288 266.435 189.044 266.619 188.732C266.811 188.42 266.907 188.06 266.907 187.652C266.907 187.244 266.811 186.884 266.619 186.572C266.435 186.26 266.179 186.02 265.851 185.852C265.523 185.676 265.147 185.588 264.723 185.588C264.299 185.588 263.919 185.676 263.583 185.852C263.255 186.02 262.995 186.26 262.803 186.572C262.619 186.884 262.527 187.244 262.527 187.652C262.527 188.06 262.619 188.42 262.803 188.732C262.995 189.044 263.255 189.288 263.583 189.464C263.919 189.64 264.299 189.728 264.723 189.728ZM270.513 193.4C270.209 193.4 269.913 193.348 269.625 193.244C269.337 193.148 269.089 193.004 268.881 192.812L269.373 191.948C269.533 192.1 269.709 192.216 269.901 192.296C270.093 192.376 270.297 192.416 270.513 192.416C270.793 192.416 271.025 192.344 271.209 192.2C271.393 192.056 271.565 191.8 271.725 191.432L272.121 190.556L272.241 190.412L274.737 184.64H275.865L272.781 191.636C272.597 192.084 272.389 192.436 272.157 192.692C271.933 192.948 271.685 193.128 271.413 193.232C271.141 193.344 270.841 193.4 270.513 193.4ZM272.025 191.204L269.121 184.64H270.321L272.793 190.304L272.025 191.204ZM276.21 191V190.256L280.29 185.192L280.518 185.588H276.282V184.64H281.442V185.396L277.362 190.448L277.098 190.052H281.538V191H276.21ZM284.904 191.072C284.376 191.072 283.872 191 283.392 190.856C282.92 190.712 282.548 190.536 282.276 190.328L282.756 189.416C283.028 189.6 283.364 189.756 283.764 189.884C284.164 190.012 284.572 190.076 284.988 190.076C285.524 190.076 285.908 190 286.14 189.848C286.38 189.696 286.5 189.484 286.5 189.212C286.5 189.012 286.428 188.856 286.284 188.744C286.14 188.632 285.948 188.548 285.708 188.492C285.476 188.436 285.216 188.388 284.928 188.348C284.64 188.3 284.352 188.244 284.064 188.18C283.776 188.108 283.512 188.012 283.272 187.892C283.032 187.764 282.84 187.592 282.696 187.376C282.552 187.152 282.48 186.856 282.48 186.488C282.48 186.104 282.588 185.768 282.804 185.48C283.02 185.192 283.324 184.972 283.716 184.82C284.116 184.66 284.588 184.58 285.132 184.58C285.548 184.58 285.968 184.632 286.392 184.736C286.824 184.832 287.176 184.972 287.448 185.156L286.956 186.068C286.668 185.876 286.368 185.744 286.056 185.672C285.744 185.6 285.432 185.564 285.12 185.564C284.616 185.564 284.24 185.648 283.992 185.816C283.744 185.976 283.62 186.184 283.62 186.44C283.62 186.656 283.692 186.824 283.836 186.944C283.988 187.056 284.18 187.144 284.412 187.208C284.652 187.272 284.916 187.328 285.204 187.376C285.492 187.416 285.78 187.472 286.068 187.544C286.356 187.608 286.616 187.7 286.848 187.82C287.088 187.94 287.28 188.108 287.424 188.324C287.576 188.54 287.652 188.828 287.652 189.188C287.652 189.572 287.54 189.904 287.316 190.184C287.092 190.464 286.776 190.684 286.368 190.844C285.96 190.996 285.472 191.072 284.904 191.072ZM291.276 191.072C290.636 191.072 290.14 190.9 289.788 190.556C289.436 190.212 289.26 189.72 289.26 189.08V183.248H290.412V189.032C290.412 189.376 290.496 189.64 290.664 189.824C290.84 190.008 291.088 190.1 291.408 190.1C291.768 190.1 292.068 190 292.308 189.8L292.668 190.628C292.492 190.78 292.28 190.892 292.032 190.964C291.792 191.036 291.54 191.072 291.276 191.072ZM288.18 185.588V184.64H292.236V185.588H288.18ZM298.009 191V189.656L297.949 189.404V187.112C297.949 186.624 297.805 186.248 297.517 185.984C297.237 185.712 296.813 185.576 296.245 185.576C295.869 185.576 295.501 185.64 295.141 185.768C294.781 185.888 294.477 186.052 294.229 186.26L293.749 185.396C294.077 185.132 294.469 184.932 294.925 184.796C295.389 184.652 295.873 184.58 296.377 184.58C297.249 184.58 297.921 184.792 298.393 185.216C298.865 185.64 299.101 186.288 299.101 187.16V191H298.009ZM295.921 191.072C295.449 191.072 295.033 190.992 294.673 190.832C294.321 190.672 294.049 190.452 293.857 190.172C293.665 189.884 293.569 189.56 293.569 189.2C293.569 188.856 293.649 188.544 293.809 188.264C293.977 187.984 294.245 187.76 294.613 187.592C294.989 187.424 295.493 187.34 296.125 187.34H298.141V188.168H296.173C295.597 188.168 295.209 188.264 295.009 188.456C294.809 188.648 294.709 188.88 294.709 189.152C294.709 189.464 294.833 189.716 295.081 189.908C295.329 190.092 295.673 190.184 296.113 190.184C296.545 190.184 296.921 190.088 297.241 189.896C297.569 189.704 297.805 189.424 297.949 189.056L298.177 189.848C298.025 190.224 297.757 190.524 297.373 190.748C296.989 190.964 296.505 191.072 295.921 191.072ZM304.629 184.58C305.149 184.58 305.605 184.68 305.997 184.88C306.397 185.08 306.709 185.384 306.933 185.792C307.157 186.2 307.269 186.716 307.269 187.34V191H306.117V187.472C306.117 186.856 305.965 186.392 305.661 186.08C305.365 185.768 304.945 185.612 304.401 185.612C303.993 185.612 303.637 185.692 303.333 185.852C303.029 186.012 302.793 186.248 302.625 186.56C302.465 186.872 302.385 187.26 302.385 187.724V191H301.233V184.64H302.337V186.356L302.157 185.9C302.365 185.484 302.685 185.16 303.117 184.928C303.549 184.696 304.053 184.58 304.629 184.58Z" fill="black"/>
</svg>
