<svg width="85" height="80" viewBox="0 0 85 80" fill="none" xmlns="http://www.w3.org/2000/svg">
<rect width="85" height="80" rx="40" fill="#FC952D"/>
<path d="M66.9216 38.8991C66.9216 35.8367 65.4689 33.2548 63.5399 32.8905L38.595 28.1665L17.7729 41.4716L44.0032 57.6003L64.339 44.6219C65.8256 43.8053 66.9216 41.5815 66.9216 38.9023V38.8991Z" fill="#DC70F7"/>
<path d="M65.7313 34.3232L43.2832 47.7413C43.9787 48.5517 44.0086 50.3672 44.16 51.8026C44.2995 52.7574 44.3015 53.662 44.1939 54.5038C44.0743 55.4618 45.5928 57.2081 45.2421 58.0059L43.7615 62.5006L64.4201 49.5756C66.9468 47.3267 66.8094 46.7771 67.1421 43.2372C67.3016 41.5348 67.19 39.0566 67.19 38.4724C67.19 36.6978 66.5144 35.4351 65.7293 34.3201L65.7313 34.3232Z" fill="#C615F2"/>
<path d="M45.1294 57.3422C45.2191 57.6312 45.2469 57.8888 45.1613 58.0866L43.6807 62.5813L64.3393 49.6563C66.5512 47.687 66.7206 47.0211 66.9537 44.5115L45.1314 57.3422H45.1294Z" fill="#980BBB"/>
<g style="mix-blend-mode:multiply" opacity="0.72">
<path d="M24.2236 43.1202L50.1729 43.6541C50.1729 43.6541 53.9272 42.6993 54.6546 46.1512C55.3839 49.6031 54.9356 53.9627 54.9356 53.9627L56.4381 51.2866L57.5261 52.9419V41.4712L24.2236 43.1202Z" fill="#E5D2A3"/>
</g>
<path d="M42.3077 47.2094L18.2275 42.4226V56.7767L43.1028 61.573C45.0517 62.0033 45.1613 55.3822 45.1613 52.2789C45.1613 49.6939 43.9357 47.5172 42.3077 47.2063V47.2094Z" fill="#F4F4F7"/>
<path d="M44.7783 48.7739C44.7783 48.7739 42.1659 53.7052 44.0948 61.0236C45.3702 60.1065 46.235 50.8564 44.7783 48.7739Z" fill="#E2E6EF"/>
<path d="M17.7729 56.6742L18.2273 56.1465C18.2273 56.1465 38.1885 60.4245 40.3545 60.8422C42.5206 61.2599 43.7203 61.4453 44.5453 60.6286C43.7681 62.0389 45.2048 63.289 36.3053 61.1971C27.4078 59.1053 17.7729 56.6742 17.7729 56.6742Z" fill="#C615F2"/>
<path d="M42.7179 46.1952L17.7729 41.4712V42.335L42.3074 47.2097C43.9355 47.5175 45.161 49.6942 45.161 52.2823C45.161 55.3856 45.4659 62.5972 42.0743 62.0507L17.7729 56.6734V57.5968L41.7255 62.8924C45.7827 63.9415 46.2132 57.0848 46.0996 52.2038C46.0996 49.1414 44.6469 46.5595 42.7179 46.1952Z" fill="#980BBB"/>
<path d="M20.7798 30.7259L27.3677 15.5363L54.2058 15.2002C56.3978 15.1719 58.3009 17.5685 58.7672 20.9418L60.7459 35.23L20.7798 30.7259Z" fill="#DCBA0A"/>
<path d="M54.428 16.0033L27.59 16.3394L21 31.5259L58.5271 35.7599L56.8213 17.0241C56.1159 16.3645 55.2949 15.9908 54.426 16.0002L54.428 16.0033Z" fill="#EDD86A"/>
<path d="M56.6005 16.2241C55.8951 15.5645 55.0741 15.1907 54.2052 15.2001L52.625 15.219L52.8761 34.3442L58.3083 34.9567L56.6025 16.2209L56.6005 16.2241Z" fill="#EACF41"/>
<path d="M56.9657 30.7253H20.7798V31.8655H56.9837C58.7552 31.8655 60.192 34.1301 60.192 36.9224C60.192 39.7147 58.7552 41.9794 56.9837 41.9794H20.7798V43.1195H56.9657C59.1378 43.1195 60.8974 40.3461 60.8974 36.9224C60.8974 33.4988 59.1378 30.7253 56.9657 30.7253Z" fill="#E7C92E"/>
<path d="M56.9657 30.7253H35.229V31.8655H56.9856C58.7571 31.8655 60.1939 34.1301 60.1939 36.9224C60.1939 39.7147 58.7571 41.9794 56.9856 41.9794H35.229V43.1195H56.9657C59.1378 43.1195 60.8973 40.3461 60.8973 36.9224C60.8973 33.4988 59.1378 30.7253 56.9657 30.7253Z" fill="#E7C92E"/>
<path d="M56.9942 31.9299H21.0693C21.0693 31.9299 21.988 33.8522 21.988 36.9869C21.988 40.1215 21.0693 42.0438 21.0693 42.0438H56.9942C58.7658 42.0438 60.2025 39.7792 60.2025 36.9869C60.2025 34.1946 58.7658 31.9299 56.9942 31.9299Z" fill="#F2F0F3"/>
<path d="M54.6538 37.9653C54.6538 37.9653 55.686 38.4679 55.6063 41.9795H57.2324C57.2324 41.9795 56.6924 37.9716 54.6538 37.9653Z" fill="#C4CCDF"/>
<path d="M54.6538 37.9653C54.6538 37.9653 56.0348 38.025 56.2958 40.1294C56.5549 42.2338 56.4373 50.7741 56.4373 50.7741L57.5034 49.6559L58.9681 50.5574C58.9681 50.5574 59.4423 39.4792 57.9119 38.0313C56.9514 38.0313 54.6538 37.9622 54.6538 37.9622V37.9653Z" fill="#F77088"/>
</svg>
