<svg width="85" height="80" viewBox="0 0 85 80" fill="none" xmlns="http://www.w3.org/2000/svg">
<path d="M0 40C0 17.9086 17.9086 0 40 0H45C67.0914 0 85 17.9086 85 40C85 62.0914 67.0914 80 45 80H40C17.9086 80 0 62.0914 0 40Z" fill="#FC952D"/>
<path d="M15 26.4538C15 21.5068 19.4447 17.7456 24.3235 18.564L63.3235 25.1062C67.1772 25.7527 70 29.0884 70 32.996V56.445C70 60.6953 66.6764 64.2037 62.4323 64.4333L23.4323 66.5437C18.8508 66.7916 15 63.1435 15 58.5554V26.4538Z" fill="#8E4CE3"/>
<path d="M17.5 25.5444C17.5 20.5669 21.9967 16.7978 26.8976 17.6674L62.8976 24.0547C66.7171 24.7324 69.5 28.0526 69.5 31.9317V55.4686C69.5 59.7093 66.1909 63.2132 61.9571 63.4555L25.9571 65.516C21.3667 65.7787 17.5 62.127 17.5 57.529V25.5444Z" fill="#A167F5"/>
<path d="M23.5 26.5742C23.5 21.8985 27.7317 18.3626 32.3329 19.1936L63.3329 24.7921C66.9032 25.4369 69.5 28.5447 69.5 32.1727V52.7144C69.5 56.6871 66.4022 59.9707 62.4362 60.2017L31.4362 62.0077C27.1299 62.2586 23.5 58.834 23.5 54.5204V26.5742Z" fill="white" stroke="#A167F5"/>
<path d="M55.4398 39.2126C56.91 39.9507 56.91 42.0493 55.4398 42.7874L44.6473 48.2057C43.3174 48.8734 41.75 47.9065 41.75 46.4183L41.75 35.5817C41.75 34.0935 43.3174 33.1266 44.6473 33.7943L55.4398 39.2126Z" fill="#8E4CE3"/>
<path d="M56.4398 39.2126C57.91 39.9507 57.91 42.0493 56.4398 42.7874L45.6473 48.2057C44.3174 48.8734 42.75 47.9065 42.75 46.4183L42.75 35.5817C42.75 34.0935 44.3174 33.1266 45.6473 33.7943L56.4398 39.2126Z" fill="#A167F5"/>
</svg>
