<svg width="85" height="80" viewBox="0 0 85 80" fill="none" xmlns="http://www.w3.org/2000/svg">
<path d="M0 40C0 17.9086 17.9086 0 40 0H45C67.0914 0 85 17.9086 85 40C85 62.0914 67.0914 80 45 80H40C17.9086 80 0 62.0914 0 40Z" fill="#A268F5"/>
<path d="M26.9773 65.1809C26.0163 65.7846 25.0867 66.2257 24.3665 66.5247C25.0986 65.0264 25.286 63.274 25.2809 61.8196C25.2776 60.8545 25.1891 59.9909 25.1018 59.3689C25.0581 59.0574 25.0144 58.8053 24.9815 58.6299C24.965 58.5422 24.9511 58.4736 24.9413 58.4262L24.9296 58.3714L24.9263 58.3564L24.9254 58.3522L24.9251 58.3508L24.925 58.3504C24.9249 58.3502 24.9249 58.3501 24.4373 58.4606L24.9249 58.3501L24.843 57.9887L24.4735 57.9619L22.1999 57.797L22.1819 57.7957H22.1638C19.2486 57.7957 16.7526 55.0046 16.7526 51.3878V51.354L16.7481 51.3205L13.0001 23.7659C13.0153 20.1644 15.5005 17.3853 18.4111 17.3853H18.4339L18.4565 17.3833L66.5445 13.0061H66.5888C69.4969 13.0061 71.9878 15.7836 72 19.3875L68.2502 54.2539L68.2474 54.2805V54.3073C68.2474 57.9114 65.7661 60.704 62.8537 60.7151L32.3337 58.5238L31.8955 58.4923L31.8079 58.9229C31.2124 61.8526 29.0572 63.8743 26.9773 65.1809Z" fill="white" stroke="#F9C43B"/>
<path d="M72.1854 18.48C72.1177 20.3256 71.9875 22.1712 71.8103 24.0168C71.4405 27.8162 70.9456 31.6157 70.3622 35.379C69.8361 38.7697 69.2162 42.2745 67.8723 45.3766C65.622 50.5948 60.7619 52.5246 56.0373 53.3422C51.0991 54.1958 46.1349 53.9073 41.1707 54.256C38.4359 54.4483 35.6907 54.6828 32.9508 54.5385C30.5963 54.4183 27.9344 54.1838 25.8456 52.7831C21.8138 50.0658 21.1679 43.3146 20.6157 38.5172C19.9906 33.0525 18.7873 25.9105 22.069 21.2214C23.5901 19.0511 25.5487 18.0832 27.773 17.1754C28.5074 16.8749 29.4399 16.5863 30.3671 16.2015L18.3915 17.2776C15.1358 17.2776 12.5 20.3256 12.5 24.083L16.2401 51.238C16.2401 54.9954 18.8811 58.0373 22.1316 58.0373L24.3975 58.1997C24.3975 58.1997 25.7414 64.0551 23.1056 67.0971C23.1056 67.0971 30.9661 64.9028 32.2319 58.7527L62.6685 60.911C65.9241 60.911 68.5599 57.863 68.5599 54.1117L72.3 19.7665C72.3 19.3216 72.2583 18.8888 72.1906 18.468L72.1854 18.48Z" fill="#F9C43B"/>
<path d="M71.8908 18.2831C71.8262 20.1325 71.7021 21.9819 71.5333 23.8313C71.1807 27.6386 70.7091 31.4458 70.153 35.2169C69.6515 38.6145 69.0606 42.1265 67.7796 45.2349C65.6347 50.4639 61.0022 52.3976 56.4988 53.2169C51.7918 54.0723 47.06 53.7831 42.3282 54.1325C39.7215 54.3253 37.1049 54.5602 34.4932 54.4157C32.249 54.2952 29.7118 54.0602 27.7207 52.6566C23.8777 49.9337 23.262 43.1687 22.7357 38.3614C22.1399 32.8855 20.9929 25.7289 24.121 21.0301C25.5708 18.8554 27.4377 17.8855 29.5578 16.9759C30.2579 16.6747 31.1467 16.3855 32.0305 16L20.6156 17.0783C17.5124 17.0783 15 20.1325 15 23.8976L18.565 51.1084C18.565 54.8735 21.0823 57.9217 24.1806 57.9217L26.3404 58.0843C26.3404 58.0843 27.6214 63.9518 25.1091 67C25.1091 67 32.6015 64.8012 33.808 58.6386L62.8194 60.8012C65.9227 60.8012 68.435 57.747 68.435 53.9879L72 19.5723C72 19.1265 71.9603 18.6928 71.8957 18.2711L71.8908 18.2831Z" fill="#F2EC5A"/>
<path d="M57.5 32.7616C57.5 33.4198 57.0951 33.9547 56.5968 33.9547H31.1874C30.6891 33.9547 30.2842 33.4198 30.2842 32.7616C30.2842 32.1033 30.6891 31.5685 31.1874 31.5685H56.5968C57.0951 31.5685 57.5 32.1033 57.5 32.7616Z" fill="#F2EC5A"/>
<path d="M57.5 37.5339C57.5 38.1922 57.0951 38.727 56.5968 38.727H31.1874C30.6891 38.727 30.2842 38.1922 30.2842 37.5339C30.2842 36.8757 30.6891 36.3408 31.1874 36.3408H56.5968C57.0951 36.3408 57.5 36.8757 57.5 37.5339Z" fill="#F2EC5A"/>
<path d="M57.5 42.3069C57.5 42.9651 57.0951 43.5 56.5968 43.5H31.1874C30.6891 43.5 30.2842 42.9651 30.2842 42.3069C30.2842 41.6486 30.6891 41.1138 31.1874 41.1138H56.5968C57.0951 41.1138 57.5 41.6486 57.5 42.3069Z" fill="#F2EC5A"/>
</svg>
