<svg width="70" height="85" viewBox="0 0 70 85" fill="none" xmlns="http://www.w3.org/2000/svg">
<g clip-path="url(#clip0_279_1309)">
<path d="M55.5594 12.794C52.385 15.4821 48.7582 17.7507 44.7976 19.3182C38.2857 21.8963 30.8392 23.2575 24.2456 20.1088C17.5779 16.9326 12.2452 8.89601 14.6037 1.91121C14.7743 1.38185 14.9968 0.85937 15.2638 0.34376C15.4863 -0.0824771 16.1464 -0.116851 16.4209 0.288762C17.9561 2.52995 21.1083 3.66429 24.0528 3.67804C27.3903 3.67804 30.5944 2.55057 33.7985 1.71185C38.9013 0.37126 44.4713 -0.261222 49.4406 1.47123C51.5989 2.22746 53.5569 3.42367 55.1812 4.93613C55.2776 5.03237 55.3889 5.12862 55.5075 5.23862C56.6423 6.31108 58.3408 8.04353 58.4149 9.45287C58.4891 10.7728 56.4717 12.0172 55.552 12.8009L55.5594 12.794Z" fill="#52C492"/>
<path opacity="0.18" d="M55.5594 12.7939C52.385 15.482 48.7582 17.7507 44.7976 19.3181C38.2857 21.8962 30.8392 23.2574 24.2456 20.1087C17.5779 16.9326 12.2452 8.89593 14.6037 1.91113C14.5296 2.85298 14.5666 3.81545 14.9227 4.85355C15.783 7.39035 17.615 9.56278 19.751 11.3365C21.7016 12.9589 23.986 14.3133 26.5522 14.8083C30.9875 15.6607 35.4895 13.8389 39.3463 11.6527C43.2104 9.47341 46.8966 6.81974 51.2799 5.76789C52.6743 5.43103 54.0909 5.26603 55.5075 5.23854C56.6423 6.311 58.3408 8.04345 58.4149 9.45279C58.4891 10.7727 56.4717 12.0171 55.552 12.8008L55.5594 12.7939Z" fill="#177B52"/>
<path d="M63.1988 10.6009C60.6993 7.91282 55.5372 7.49345 51.9326 7.10846C47.6754 6.65473 43.3958 6.84722 39.2573 7.91969C34.822 9.06778 30.5202 10.9996 25.7957 10.4152C20.5669 9.76901 16.8807 6.35224 16.139 1.53988C16.1019 1.31301 15.7385 1.34738 15.7163 1.56738C15.4122 5.0254 17.9042 8.21531 21.0786 9.82401C24.876 11.7558 29.2297 11.5771 33.2793 10.5184C38.0261 9.27403 42.3352 7.74782 47.3564 7.78907C49.6779 7.80969 51.9845 8.05031 54.2689 8.42843C56.939 8.86841 60.5287 9.26028 62.3903 11.254C62.8428 11.7352 63.6512 11.089 63.1988 10.6077V10.6009Z" fill="#177B52"/>
<path d="M62.3458 67.2905C57.9106 73.0997 51.8881 77.9877 44.7383 80.5795C37.5885 83.1713 29.2891 83.3294 22.3395 80.3182C20.5372 82.3325 18.5124 83.8794 15.8053 84.6081C14.537 84.9587 13.1723 85.1306 11.8892 84.8418C10.7544 84.5737 9.73088 83.9481 8.92245 83.1575C7.46875 81.7482 6.66032 79.7889 6.71223 77.8433C6.76415 75.8977 7.68384 73.9728 9.20429 72.6322C8.81861 72.2335 8.43294 71.8278 8.06209 71.4154C3.16699 66.053 -0.534007 59.3432 0.0667563 52.3997C0.504349 47.3054 2.95932 42.5756 5.66646 38.1276C8.68511 33.1709 12.0968 28.3585 16.4728 24.3505C20.8339 20.3494 26.2333 17.1595 32.2335 15.9289C36.8171 14.987 41.8457 15.1589 46.5332 15.3858C48.8991 10.5321 55.0403 7.52786 60.6919 8.46971C62.4126 8.75157 64.1407 9.43218 65.32 10.5734C65.6686 10.9103 65.9801 11.2815 66.2248 11.694C66.8701 12.7871 67.0407 14.0589 67.0481 15.3033C67.0704 18.7132 65.8837 22.1299 63.7031 24.8798C65.4387 26.9148 66.655 29.1285 67.4931 31.6034C69.9407 38.7394 70.8455 46.4667 69.0432 53.7677C67.8417 58.6351 65.4387 63.2137 62.3384 67.2905H62.3458Z" fill="#FDCD55"/>
<path d="M61.4632 14.0176C61.3742 13.9489 61.2704 13.887 61.174 13.8251C62.5461 12.4364 63.6364 10.814 64.7489 9.2465C66.0097 7.46593 67.4189 5.76785 67.8269 3.64354C67.9455 3.01793 67.0333 2.44732 66.4548 2.78419C64.4819 3.93915 63.3174 5.7816 62.0121 7.53467C60.8921 9.03338 59.7203 10.5321 58.8525 12.1683C58.6597 11.9964 58.4446 11.852 58.1776 11.7902C57.8661 11.7214 57.4656 11.7214 57.2208 11.962C55.2479 13.9145 59.4755 17.1181 61.5522 15.4201C62.0566 15.0076 61.9379 14.382 61.4632 14.0176Z" fill="#177B52"/>
<path d="M62.3458 67.2904C57.9106 73.0996 51.8881 77.9875 44.7383 80.5793C37.5885 83.1711 29.289 83.3293 22.3395 80.3181C20.5372 82.3324 18.5124 83.8792 15.8053 84.608C14.537 84.9586 13.1723 85.1305 11.8892 84.8417C10.7544 84.5736 9.73087 83.948 8.92244 83.1574C7.46874 81.7481 6.66031 79.7887 6.71223 77.8432C6.76414 75.8976 7.68383 73.9727 9.20428 72.6321C8.8186 72.2333 8.43293 71.8277 8.06209 71.4152C12.527 73.4914 17.3554 74.7426 22.3172 74.5295C28.221 74.282 33.8801 71.9721 38.6268 68.7066C43.381 65.441 47.3045 61.2543 50.8794 56.8888C54.306 52.702 57.4878 48.2678 59.3939 43.3179C61.3075 38.3681 61.8637 32.8339 60.0244 27.8565C59.7129 26.9972 59.3124 26.0966 59.5052 25.2097C59.6758 24.3985 60.2988 23.7385 60.8476 23.0923C63.3174 20.198 64.7489 16.6094 65.0307 12.9382C65.0975 12.1407 65.1865 11.3433 65.3274 10.5664C65.676 10.9033 65.9875 11.2745 66.2323 11.687C66.8775 12.7801 67.0481 14.0519 67.0555 15.2963C67.0778 18.7062 65.8911 22.1229 63.7105 24.8729C65.4461 26.9078 66.6624 29.1215 67.5005 31.5964C69.9481 38.7325 70.8529 46.4597 69.0506 53.7608C67.8491 58.6281 65.4461 63.2067 62.3458 67.2835V67.2904Z" fill="#F9C34B"/>
</g>
<defs>
<clipPath id="clip0_279_1309">
<rect width="70" height="85" fill="white"/>
</clipPath>
</defs>
</svg>
