<svg width="32" height="28" viewBox="0 0 32 28" fill="none" xmlns="http://www.w3.org/2000/svg">
<path d="M22.0003 8.75011C23.9998 11.4171 23.9998 16.5832 22.0003 19.2503M26.5003 3.50004C32.4824 9.21212 32.5184 18.8257 26.5003 24.5003M1 18.4387V9.56012C1 8.69911 1.67201 8.0001 2.50002 8.0001H7.87909C8.07759 7.99939 8.2739 7.95849 8.45616 7.87986C8.63843 7.80123 8.80288 7.68651 8.93961 7.54259L13.4397 2.46053C14.3847 1.47651 16.0002 2.17402 16.0002 3.56454V24.4358C16.0002 25.8368 14.3652 26.5283 13.4262 25.5248L8.94111 20.4713C8.80399 20.3233 8.63788 20.2051 8.4531 20.124C8.26833 20.043 8.06885 20.0009 7.86709 20.0003H2.50002C1.67201 20.0003 1 19.3013 1 18.4387Z" stroke="#7F27FF" stroke-width="2" stroke-linecap="round" stroke-linejoin="round"/>
</svg>
