<svg width="70" height="85" viewBox="0 0 70 85" fill="none" xmlns="http://www.w3.org/2000/svg">
<g clip-path="url(#clip0_279_1294)">
<path d="M69.839 17.0454C67.4527 25.5681 60.0816 47.6632 43.7875 64.9518C35.721 73.508 25.4659 80.8898 12.5536 84.8659C10.6212 85.4615 8.65211 84.0271 8.24951 81.7874C8.15435 81.2421 8.03724 80.6382 7.92744 79.9923C7.56876 77.9706 7.12957 75.4793 6.65378 72.644C6.4781 71.6206 6.30243 70.5301 6.11211 69.4228C3.02312 50.6243 -1.22973 20.2834 0.336724 3.60717C0.53436 1.4849 2.13009 -0.100517 3.99666 0.000143731C7.13689 0.167912 12.3852 0.520227 18.7535 1.18291C29.1112 2.25663 42.426 4.16081 54.438 7.46585C55.7263 7.81816 56.9926 8.19564 58.2443 8.58151C61.3113 9.5294 64.2612 10.5947 67.0062 11.7607C67.2477 11.8614 67.482 11.9621 67.7162 12.0627C69.4657 12.8261 70.3953 15.0071 69.8317 17.0454H69.839Z" fill="#F47052"/>
<path d="M67.0135 11.7607C66.0033 19.369 63.0388 26.4488 59.6424 33.1009C55.3675 41.4474 50.3095 49.3241 44.3951 56.2194C42.3382 58.6437 40.1715 60.9337 37.895 63.0895C29.2209 71.2934 18.9365 77.4254 7.9201 79.9922C7.56142 77.9706 7.12223 75.4792 6.64644 72.644C6.47076 71.6206 6.29508 70.5301 6.10477 69.4228C6.64644 69.2383 7.23935 69.0873 7.79566 68.8608C11.8143 67.2082 15.6938 65.1363 19.3903 62.7037C26.5565 57.9977 33.0346 51.9161 38.4147 44.744C39.9958 42.6385 41.4891 40.4324 42.8725 38.1423C48.4649 28.9486 52.4323 18.4379 54.4452 7.46582C55.7335 7.81813 56.9999 8.19561 58.2516 8.58148C61.3186 9.52938 64.2685 10.5947 67.0135 11.7607Z" fill="white"/>
<path d="M69.839 17.0455C67.4527 25.5681 60.0816 47.6633 43.7875 64.9518C35.721 73.508 25.4659 80.8898 12.5536 84.866C10.6212 85.4615 8.65211 84.0271 8.24951 81.7874C8.15435 81.2422 8.03724 80.6382 7.92744 79.9923C7.56876 77.9707 7.12957 75.4793 6.65378 72.644C13.8419 70.1526 31.1754 62.6869 43.9632 45.2138C50.6975 36.0117 56.1728 24.0498 58.2589 8.58154C61.326 9.52944 64.2759 10.5948 67.0208 11.7608C67.2624 11.8614 67.4966 11.9621 67.7309 12.0627C69.4803 12.8261 70.4099 15.0071 69.8463 17.0455H69.839Z" fill="#52C492"/>
<path opacity="0.08" d="M69.839 17.0451C67.4527 25.5677 60.0816 47.6628 43.7875 64.9514C44.1242 62.0574 44.3365 59.1466 44.4024 56.219C44.4317 55.0363 44.439 53.8535 44.4244 52.6623C44.3878 50.171 44.234 47.6796 43.9632 45.2134C43.7143 42.8311 43.3557 40.4656 42.8799 38.142C41.6062 31.7584 39.4981 25.618 36.475 20.0649C32.1416 12.121 25.927 5.6284 18.7535 1.19092C29.1112 2.26464 42.426 4.16881 54.438 7.47385C55.7262 7.82617 56.9926 8.20365 58.2443 8.58952C61.3113 9.53741 64.2612 10.6027 67.0062 11.7687C67.2477 11.8694 67.482 11.9701 67.7162 12.0707C69.4657 12.8341 70.3953 15.0151 69.8317 17.0534L69.839 17.0451Z" fill="#966024"/>
<path d="M19.4855 17.8841C19.7051 18.1693 19.8954 18.4713 20.0052 18.8236C20.1443 19.2514 20.1297 19.7295 20.0711 20.1741C19.8808 21.5246 19.0171 23.1184 17.8678 23.8734C17.253 24.276 16.5649 24.4354 15.8475 24.2006C13.8858 23.5463 12.5682 20.107 11.8363 18.1944C11.6313 17.6576 11.441 17.0872 11.441 16.5084C11.441 15.9212 11.6533 15.292 12.0998 15.0068C12.5097 14.7384 13.0221 14.7887 13.4905 14.8726C13.6296 14.8978 13.7687 14.9146 13.9078 14.9397C15.9866 15.3256 18.1094 16.0805 19.4855 17.8757V17.8841Z" fill="#7C4525"/>
<path opacity="0.44" d="M19.4855 17.8842C19.7051 18.1694 19.8954 18.4714 20.0052 18.8237C20.1443 19.2515 20.1297 19.7296 20.0711 20.1742C19.8808 21.5248 19.0171 23.1186 17.8678 23.8735C18.0874 22.6153 17.8678 21.1557 17.3994 19.8555C16.9748 18.6979 16.3819 17.6074 15.6572 16.6427C15.1888 16.0136 14.4787 15.5019 13.9078 14.9482C15.9866 15.3341 18.1094 16.0891 19.4855 17.8842Z" fill="#895420"/>
<path d="M40.0324 20.8787C40.2301 21.1304 40.3984 21.3988 40.4936 21.7176C40.6107 22.095 40.6034 22.5229 40.5521 22.9255C40.3838 24.125 39.6152 25.5511 38.5904 26.2221C38.0487 26.5829 37.4339 26.7255 36.7897 26.5157C35.0403 25.9286 33.8691 22.8668 33.2103 21.1639C33.0273 20.6858 32.8589 20.1825 32.8516 19.6624C32.8516 19.1339 33.0419 18.5803 33.4372 18.3202C33.8032 18.077 34.257 18.1273 34.6743 18.2028C34.7987 18.228 34.9231 18.2447 35.0476 18.2615C36.8995 18.6055 38.7954 19.2765 40.0251 20.8787H40.0324Z" fill="#7C4525"/>
<path opacity="0.44" d="M40.0324 20.8785C40.2301 21.1302 40.3984 21.3986 40.4936 21.7174C40.6107 22.0948 40.6034 22.5226 40.5521 22.9253C40.3838 24.1248 39.6152 25.5509 38.5904 26.2219C38.788 25.0979 38.5904 23.7977 38.1732 22.6401C37.7999 21.6083 37.2655 20.6352 36.6214 19.7712C36.2041 19.2092 35.5673 18.7562 35.0622 18.2529C36.9142 18.5969 38.81 19.2679 40.0397 20.8701L40.0324 20.8785Z" fill="#895420"/>
<path d="M22.6697 43.2674C22.8673 43.519 23.0357 43.7875 23.1308 44.1062C23.2553 44.4837 23.2406 44.9115 23.1894 45.3142C23.021 46.5137 22.2524 47.9397 21.2276 48.6108C20.686 48.9715 20.0711 49.1141 19.427 48.9044C17.6775 48.3172 16.5063 45.2554 15.8475 43.5526C15.6645 43.0745 15.4962 42.5712 15.4889 42.0511C15.4889 41.5226 15.6792 40.969 16.0745 40.7089C16.4404 40.4657 16.8943 40.516 17.3115 40.5915C17.4359 40.6166 17.5604 40.6334 17.6848 40.6586C19.5368 41.0025 21.4326 41.6736 22.6623 43.2758L22.6697 43.2674Z" fill="#7C4525"/>
<path opacity="0.44" d="M22.6697 43.2676C22.8673 43.5192 23.0357 43.7877 23.1308 44.1064C23.2553 44.4839 23.2406 44.9117 23.1894 45.3144C23.021 46.5139 22.2524 47.9399 21.2276 48.611C21.4253 47.487 21.2276 46.1868 20.8104 45.0292C20.4371 43.9974 19.9027 43.0243 19.2586 42.1603C18.8414 41.5983 18.2045 41.1453 17.6995 40.6504C19.5514 40.9943 21.4472 41.6654 22.677 43.2676H22.6697Z" fill="#895420"/>
</g>
<defs>
<clipPath id="clip0_279_1294">
<rect width="70" height="85" fill="white"/>
</clipPath>
</defs>
</svg>
